<?xml version="1.0" standalone="no"?>
<!DOCTYPE svg PUBLIC "-//W3C//DTD SVG 20010904//EN"
 "http://www.w3.org/TR/2001/REC-SVG-20010904/DTD/svg10.dtd">
<svg version="1.0" xmlns="http://www.w3.org/2000/svg"
 width="700.000000pt" height="700.000000pt" viewBox="0 0 700.000000 700.000000"
 preserveAspectRatio="xMidYMid meet">
<metadata>
Created by potrace 1.11, written by Peter Selinger 2001-2013
</metadata>
<g transform="translate(0.000000,700.000000) scale(0.100000,-0.100000)"
fill="#000000" stroke="none">
<path d="M3385 6893 c-862 -34 -1666 -385 -2274 -993 -766 -765 -1118 -1829
-961 -2900 216 -1472 1388 -2644 2860 -2860 393 -58 782 -48 1170 30 1644 329
2815 1839 2720 3507 -28 477 -134 889 -340 1308 -244 499 -591 916 -1040 1249
-436 324 -978 547 -1525 627 -118 17 -454 41 -515 37 -14 -1 -56 -3 -95 -5z
m-398 -289 c214 -103 200 -413 -23 -505 l-54 -23 0 -343 0 -343 306 -366 c270
-323 308 -364 322 -352 9 7 139 123 289 257 l273 243 0 227 0 226 -47 17 c-58
21 -113 71 -144 129 -34 63 -33 166 1 233 45 89 128 139 230 139 102 0 175
-42 226 -129 77 -132 12 -315 -131 -370 l-45 -17 0 -231 c0 -127 -3 -241 -6
-253 -3 -12 -145 -146 -315 -298 l-309 -276 0 -304 0 -305 -45 0 -45 0 0 310
0 311 -135 162 c-75 89 -139 163 -144 165 -4 1 -115 -81 -247 -183 -133 -102
-248 -185 -260 -185 -15 0 -65 56 -184 205 l-163 204 -58 -6 c-83 -8 -144 11
-195 62 -51 52 -67 98 -62 180 14 222 316 281 420 82 38 -73 30 -161 -22 -243
-12 -19 -2 -34 129 -198 78 -97 144 -176 147 -176 2 0 101 75 219 166 135 104
213 170 208 177 -4 7 -63 80 -133 162 -69 83 -136 163 -148 179 -21 27 -22 39
-22 192 l0 164 -341 0 -341 0 -254 -196 c-139 -107 -256 -199 -259 -204 -3 -4
4 -28 15 -51 13 -30 20 -66 20 -109 0 -110 -53 -195 -155 -248 -61 -31 -167
-35 -228 -8 -144 63 -209 239 -141 381 27 58 62 93 128 128 60 32 183 31 245
-2 38 -20 48 -22 65 -11 12 7 127 95 256 195 129 99 246 189 260 198 22 15 62
17 377 17 l353 0 0 149 0 149 -49 17 c-110 36 -186 145 -184 264 0 77 19 125
70 182 87 96 212 120 330 63z m2268 -715 c25 -12 65 -44 90 -71 79 -88 94
-202 40 -309 l-23 -46 214 -278 214 -277 0 -354 0 -354 148 0 147 0 18 51 c23
64 83 130 145 160 68 33 169 31 238 -4 91 -46 144 -124 152 -224 10 -125 -43
-219 -152 -273 -58 -29 -72 -32 -133 -28 -120 7 -213 74 -251 180 l-17 48
-344 0 -344 0 -363 -303 c-200 -166 -363 -306 -363 -310 -1 -8 368 -427 463
-524 l50 -53 223 0 222 0 27 61 c79 175 289 211 426 74 71 -72 89 -198 42
-293 -79 -158 -288 -190 -414 -63 -26 27 -51 64 -59 89 l-14 42 -241 0 c-193
0 -246 3 -262 14 -11 8 -141 150 -289 315 l-268 301 -304 0 -303 0 3 43 2 42
310 5 310 5 160 134 c88 73 161 136 162 140 1 3 -81 113 -182 245 -120 154
-185 247 -185 262 0 19 42 57 203 185 l202 161 -3 77 c-3 63 0 86 16 117 42
82 111 124 202 124 73 0 121 -22 173 -79 92 -101 65 -260 -57 -336 -41 -25
-59 -30 -110 -29 -57 0 -106 16 -147 45 -14 10 -45 -10 -197 -131 l-181 -143
71 -91 c39 -50 114 -148 167 -218 53 -70 98 -127 101 -127 3 0 88 69 190 154
l185 155 168 0 167 0 0 339 0 339 -191 249 c-105 136 -197 254 -203 261 -10
10 -21 9 -57 -7 -51 -24 -140 -27 -201 -9 -50 15 -132 87 -161 142 -17 32 -22
58 -22 121 0 70 4 87 29 133 53 96 130 140 244 141 54 1 84 -4 117 -20z m-578
-797 c66 -47 81 -145 33 -212 -40 -56 -128 -77 -191 -45 l-29 16 -140 -106
-140 -106 0 -172 0 -172 36 -20 c74 -40 109 -132 79 -210 -32 -85 -117 -129
-206 -106 l-50 13 -95 -92 -96 -93 -30 34 -31 33 97 93 c97 92 98 93 87 125
-26 74 4 153 73 196 l45 27 3 195 3 194 155 119 155 118 6 53 c7 63 30 101 78
127 46 25 117 21 158 -9z m-2549 -382 c65 -40 91 -128 57 -194 -18 -33 -26
-18 98 -183 l99 -133 174 0 c161 0 173 1 179 19 10 33 46 71 86 91 72 37 150
21 206 -43 39 -44 50 -96 34 -155 -11 -42 -10 -45 18 -80 16 -20 57 -64 90
-97 34 -33 61 -64 60 -70 0 -5 -14 -21 -31 -34 l-30 -25 -92 98 -91 98 -46
-11 c-79 -18 -162 18 -194 86 l-16 33 -185 0 c-102 0 -193 4 -202 9 -9 5 -69
79 -132 163 l-115 154 -47 0 c-75 -1 -137 57 -145 135 -12 118 123 201 225
139z m-922 -335 c81 -24 152 -98 178 -187 5 -17 26 -18 255 -18 l249 0 58 -63
c33 -35 158 -174 279 -310 l220 -247 310 0 310 0 -1 -42 -1 -43 -317 -5 -316
-5 -165 -138 -165 -139 64 -81 c235 -303 316 -411 316 -421 0 -21 -21 -40
-222 -199 l-197 -156 11 -37 c21 -77 -18 -187 -84 -234 -114 -83 -275 -44
-338 81 -25 48 -27 146 -4 192 61 121 196 165 313 104 29 -15 58 -24 64 -20 7
4 87 67 180 141 113 91 165 138 159 146 -5 6 -80 103 -167 216 -87 113 -159
207 -161 208 -1 2 -85 -65 -186 -150 l-183 -153 -170 -5 -170 -5 -3 -336 -2
-335 196 -255 c108 -140 199 -257 203 -261 4 -4 31 2 61 13 67 26 165 23 225
-6 57 -28 120 -97 139 -152 65 -191 -65 -377 -264 -376 -156 1 -270 118 -270
279 0 55 5 81 25 119 13 27 21 53 18 59 -4 6 -95 126 -203 266 -108 140 -202
265 -208 277 -9 15 -12 125 -12 368 l0 346 -146 -3 -146 -3 -20 -54 c-56 -150
-234 -220 -380 -148 -174 85 -211 306 -75 442 135 134 343 107 437 -59 17 -28
30 -59 30 -68 0 -17 23 -18 349 -18 l349 0 366 306 366 306 -86 97 c-48 53
-161 180 -253 283 l-166 187 -237 1 c-208 0 -238 -2 -238 -15 0 -29 -38 -91
-78 -127 -157 -141 -407 -45 -429 166 -9 90 25 169 98 228 70 56 145 70 235
43z m1909 -1307 c-96 -91 -103 -102 -94 -124 30 -81 -13 -182 -92 -214 l-29
-12 0 -198 0 -198 -160 -118 -159 -119 -1 -46 c-1 -114 -129 -188 -220 -126
-54 36 -75 72 -75 127 0 55 21 91 75 128 38 26 86 28 137 7 l36 -15 138 102
138 103 1 175 0 175 -40 23 c-49 28 -80 84 -80 148 0 123 102 193 235 161 28
-7 37 -1 130 87 l100 94 32 -30 31 -30 -103 -100z m845 31 l95 -101 43 11 c76
21 159 -17 198 -91 l15 -28 187 0 c135 0 193 -4 205 -12 9 -7 67 -81 129 -163
98 -131 116 -150 138 -147 71 11 152 -52 165 -127 10 -59 -21 -124 -74 -150
-70 -36 -137 -24 -190 33 -31 33 -41 119 -18 162 l15 29 -106 143 -107 142
-172 0 -172 0 -17 -36 c-33 -69 -131 -110 -207 -85 -46 16 -104 80 -113 126
-6 35 -2 84 10 116 5 10 -24 48 -90 118 l-97 102 28 30 c16 16 31 29 34 29 3
0 49 -46 101 -101z m-400 -359 l0 -310 142 -170 c78 -94 144 -170 147 -170 3
0 113 84 245 185 145 113 247 185 261 185 17 0 60 -48 184 -204 l161 -204 73
5 c61 5 79 2 120 -17 82 -39 127 -114 127 -211 -1 -115 -107 -219 -224 -219
-87 0 -193 77 -215 156 -21 76 -7 159 35 206 10 10 13 22 8 30 -29 47 -277
349 -285 346 -17 -6 -428 -323 -428 -330 -1 -5 69 -91 154 -193 l155 -185 0
-165 0 -165 340 0 339 0 260 201 259 200 -20 46 c-28 63 -28 163 1 223 100
212 380 225 498 23 38 -65 44 -169 13 -241 -29 -68 -100 -134 -169 -157 -68
-22 -156 -15 -216 19 l-43 23 -277 -213 -277 -214 -354 0 -354 0 0 -149 0
-149 48 -16 c61 -21 115 -65 149 -123 21 -36 27 -63 31 -124 4 -70 2 -85 -22
-133 -103 -211 -396 -213 -500 -4 -37 73 -37 173 0 246 32 64 91 116 155 137
l49 17 0 343 0 344 -306 366 c-169 201 -310 364 -314 363 -4 -2 -134 -115
-288 -253 l-281 -250 0 -231 -1 -231 41 -12 c50 -15 123 -81 152 -136 28 -55
29 -154 0 -215 -45 -97 -132 -153 -237 -152 -146 1 -256 111 -256 257 0 109
72 213 170 245 l40 13 2 251 3 251 307 275 308 275 0 313 0 312 45 0 45 0 0
-310z"/>
<path d="M2807 6540 c-130 -39 -175 -203 -84 -307 39 -44 82 -63 142 -63 104
0 185 81 185 185 0 60 -19 103 -63 142 -53 47 -117 62 -180 43z"/>
<path d="M1325 5268 c-76 -42 -107 -113 -80 -184 33 -87 111 -122 193 -88 68
28 95 73 90 146 -5 62 -27 96 -80 124 -32 17 -95 18 -123 2z"/>
<path d="M2195 5259 c-75 -43 -74 -149 2 -188 57 -29 134 8 147 69 6 34 -12
87 -37 108 -22 19 -88 25 -112 11z"/>
<path d="M5096 5780 c-88 -27 -133 -140 -86 -218 71 -115 251 -86 276 45 14
73 -32 147 -105 172 -39 13 -45 13 -85 1z"/>
<path d="M5099 4851 c-79 -80 10 -211 113 -168 42 18 72 73 62 114 -19 82
-116 112 -175 54z"/>
<path d="M6300 4337 c-51 -16 -105 -75 -119 -130 -50 -201 210 -326 336 -161
38 51 45 145 14 201 -25 43 -71 79 -122 93 -41 12 -63 11 -109 -3z"/>
<path d="M4099 4191 c-63 -64 -23 -161 66 -161 86 0 127 100 66 161 -22 21
-39 29 -66 29 -27 0 -44 -8 -66 -29z"/>
<path d="M2873 4253 c-12 -2 -34 -18 -48 -34 -52 -62 -19 -145 61 -156 33 -4
45 -1 72 22 26 22 32 34 32 67 0 52 -14 77 -55 94 -19 8 -36 13 -37 13 -2 -1
-13 -4 -25 -6z"/>
<path d="M572 3019 c-105 -52 -135 -199 -59 -286 74 -84 186 -95 268 -26 64
54 85 143 50 218 -48 104 -158 144 -259 94z"/>
<path d="M1814 2326 c-69 -30 -86 -111 -36 -167 23 -26 35 -31 69 -31 23 0 51
7 62 14 31 19 52 70 45 107 -7 33 -48 81 -70 81 -7 0 -18 2 -26 5 -7 2 -27 -2
-44 -9z"/>
<path d="M1806 1502 c-65 -45 -88 -117 -58 -185 36 -82 116 -114 196 -79 59
27 86 70 86 140 0 47 -4 57 -39 94 -35 38 -43 42 -97 45 -46 3 -65 0 -88 -15z"/>
<path d="M2795 2957 c-18 -15 -28 -36 -32 -64 -5 -37 -2 -45 25 -73 74 -73
194 -2 162 96 -21 63 -104 86 -155 41z"/>
<path d="M4081 2919 c-48 -45 -47 -120 2 -154 54 -38 141 -4 153 59 7 38 -15
89 -45 106 -33 17 -85 12 -110 -11z"/>
<path d="M5600 2009 c-40 -16 -80 -60 -91 -101 -24 -91 50 -188 143 -188 81 0
148 68 148 150 0 105 -104 177 -200 139z"/>
<path d="M4743 1928 c-25 -12 -53 -65 -53 -100 0 -41 49 -89 97 -95 39 -5 46
-2 78 30 38 38 45 74 23 122 -21 47 -92 68 -145 43z"/>
<path d="M4100 819 c-33 -13 -78 -57 -97 -94 -23 -42 -19 -126 7 -172 41 -73
132 -114 209 -93 47 12 105 59 128 103 19 37 19 127 -1 164 -19 37 -64 79 -99
92 -35 13 -113 13 -147 0z"/>
</g>
</svg>
