<svg xmlns="http://www.w3.org/2000/svg" width="205" height="44"><g fill="none" fill-rule="evenodd"><path fill="#E84133" d="M63.46 19.17h-1.54v-8.03l.16-.13h-11.3l.15.14v8.03H49.4V1.35h1.53v8.03l-.16.13h11.3l-.15-.12V1.35h1.54"/><g fill="#E84133"><path d="M78.75 19.17h-1.47v-2.14h-.05c-.97 1.46-2.64 2.36-4.6 2.36-3.76 0-5.32-2.06-5.32-5.4V5.3h1.5v8.6c0 2.2.67 4.06 4.03 4.06 2.47 0 4.45-1.45 4.45-4.38V5.3h1.47v13.87z"/><path d="M100.4 19.17H98.9v-7.72c0-2.6-.26-4.93-3.12-4.93-2.42 0-3.52 2.1-3.5 4.27v8.37h-1.5v-8.3c0-2.35-.44-4.37-3.1-4.37-2.07 0-3.5 1.87-3.5 4.3v8.37h-1.5V5.3h1.5v2.2h.05c.77-1.57 2.26-2.4 3.83-2.4 1.7 0 3.14 1.02 3.87 2.5H92c.9-1.54 2.54-2.5 4.15-2.5 2.8 0 4.27 1.84 4.27 5.8l-.03 8.27z"/><path d="M115.15 19.17h-1.47v-1.52h-.05c-.96 1.08-2.6 1.76-4.75 1.76-2.77 0-5.4-1.1-5.4-4.15 0-4.18 5.1-4.4 8.6-4.4.5 0 1.36.07 1.75.14l-.15-.17v-.75c0-2.7-1.96-3.56-4.1-3.56-1.42 0-3.14.3-4.33 1.34l-1-1.03c1.58-1.28 3.3-1.72 5.34-1.72 2.9 0 5.55 1.16 5.55 4.96v9.1zm-1.32-6.95c-.4-.05-1.16-.1-1.63-.1-.6 0-1.34 0-2.1.05-.8.05-1.6.14-2.34.3-1.47.36-2.8 1.13-2.8 2.78 0 2.22 2.45 2.73 3.92 2.73 1.52 0 4.8-.53 4.8-2.75v-2.86l.15-.15z"/><path d="M130.6 19.17h-1.46V10.7c0-2.4-.77-4.18-4.13-4.18-2.44 0-4.53 1.45-4.53 4.38v8.27H119V5.3h1.47v2.14h.05c.97-1.5 2.77-2.35 4.7-2.35 3.52 0 5.4 1.84 5.4 5.16v8.9z"/><path d="M135.2 3.07c-.7 0-1.1-.46-1.1-1.26 0-.78.4-1.24 1.1-1.24.74 0 1.1.46 1.1 1.25 0 .8-.4 1.27-1.1 1.27zm-.74 16.1h1.48V5.33h-1.48v13.84z"/><path d="M147.37 18.07c-1.14.88-2.3 1.32-3.58 1.32-2.17 0-3.55-1.44-3.55-4.12V6.8l.08-.15h-1.76V5.3h1.76l-.08-.14v-2.4l1.47-.8v3.2l-.1.15h4.4v1.35h-4.4l.1.16v8.4c0 1.77.8 2.78 2.18 2.78.94 0 1.7-.3 2.44-.97l1.03 1.07z"/><path d="M160.46 19.17H159v-1.52h-.06c-.96 1.08-2.6 1.76-4.75 1.76-2.78 0-5.4-1.1-5.4-4.15 0-4.18 5.08-4.4 8.6-4.4.5 0 1.35.07 1.74.14l-.15-.17v-.75c0-2.7-1.97-3.56-4.1-3.56-1.43 0-3.15.3-4.34 1.34l-1-1.03c1.57-1.28 3.3-1.72 5.34-1.72 2.9 0 5.56 1.16 5.56 4.96v9.1zm-1.32-6.95c-.4-.05-1.16-.1-1.63-.1-.6 0-1.33 0-2.1.05-.8.05-1.6.14-2.33.3-1.47.36-2.8 1.13-2.8 2.78 0 2.22 2.45 2.73 3.92 2.73 1.5 0 4.8-.53 4.8-2.75v-2.86l.14-.15z"/><path d="M170.7 6.83h-.4c-2.14 0-4.52 1.52-4.52 5.5v6.84h-1.47V5.3h1.48v3.02h.05c.77-2.1 2.64-3.16 4.7-3.16h.16v1.67z"/><path d="M173.86 3.07c-.7 0-1.1-.46-1.1-1.26 0-.78.4-1.24 1.1-1.24.72 0 1.1.46 1.1 1.25 0 .8-.4 1.27-1.1 1.27zm-.75 16.1h1.48V5.33h-1.47v13.84z"/><path d="M189.43 19.17h-1.48v-1.52h-.04c-.96 1.08-2.58 1.76-4.74 1.76-2.77 0-5.4-1.1-5.4-4.15 0-4.18 5.1-4.4 8.6-4.4.5 0 1.35.07 1.75.14l-.15-.17v-.75c0-2.7-1.95-3.56-4.1-3.56-1.42 0-3.13.3-4.32 1.34l-1-1.03c1.57-1.28 3.3-1.72 5.33-1.72 2.9 0 5.57 1.16 5.57 4.96v9.1zm-1.32-6.95c-.4-.05-1.16-.1-1.62-.1-.6 0-1.34 0-2.1.05-.8.05-1.62.14-2.34.3-1.48.36-2.8 1.13-2.8 2.78 0 2.22 2.45 2.73 3.92 2.73 1.52 0 4.8-.53 4.8-2.75v-2.86l.15-.15z"/><path d="M204.9 19.17h-1.48V10.7c0-2.4-.77-4.18-4.14-4.18-2.44 0-4.53 1.45-4.53 4.38v8.27h-1.47V5.3h1.47v2.14h.04c.96-1.5 2.77-2.35 4.7-2.35 3.52 0 5.4 1.84 5.4 5.16v8.9z"/></g><path fill="#E84133" d="M49.5 42.23h1.54V24.4H49.5"/><path fill="#E84133" d="M67.9 27.86c-1.1-1.36-2.72-2.2-5.1-2.2-4.86 0-6.86 3.57-6.86 7.77 0 4.13 1.94 7.54 6.84 7.54 2.36 0 4-.8 5.1-2.17l1.15 1.14c-1.4 1.58-3.5 2.5-6.25 2.5-5.6 0-8.44-3.56-8.44-9 0-5.47 3-9.25 8.46-9.25 2.82 0 4.87.9 6.27 2.5l-1.18 1.16z"/><path fill="#E84133" d="M84.47 25.88h-6.5l.12.16v16.2h-1.55v-16.2l.1-.16h-6.48V24.4h14.3"/><path fill="#0C64AF" d="M105.8 25.88H95.1l.15.16v6.86l-.16.13h9.65v1.48H95.1l.15.16v7.57H93.7V24.4h12.1"/><path fill="#0C64AF" d="M95.4 42.4h-1.85V24.24h12.4v1.8H95.42v6.82h9.5v1.8h-9.5v7.72zm-1.53-.33h1.22v-7.34l-.4-.38h9.9V33.2h-9.94l.43-.37V26.1l-.4-.38h10.94v-1.15H93.87v17.5z"/><path fill="#0C64AF" d="M113.94 42.45c-4.18 0-6.27-2.95-6.27-7.15 0-4.18 2.1-7.15 6.25-7.15 4.2 0 6.3 2.93 6.3 7.15 0 4.18-2.14 7.15-6.28 7.15m0-12.87c-3.43 0-4.8 2.57-4.8 5.72 0 3.12 1.4 5.72 4.8 5.72s4.8-2.57 4.8-5.72-1.4-5.72-4.8-5.72"/><path fill="#0C64AF" d="M113.94 42.6c-4.02 0-6.43-2.72-6.43-7.3s2.4-7.3 6.42-7.3c4.04 0 6.45 2.72 6.45 7.3 0 4.5-2.46 7.3-6.43 7.3m-.02-14.3c-3.8 0-6.1 2.62-6.1 7s2.3 7 6.12 7c3.83 0 6.1-2.62 6.1-7 0-4.44-2.22-7-6.12-7m.02 12.88c-3.1 0-4.95-2.2-4.95-5.88 0-3.74 1.8-5.88 4.94-5.88 3.1 0 4.96 2.2 4.96 5.88 0 3.74-1.8 5.88-4.96 5.88m0-11.44c-2.94 0-4.63 2.03-4.63 5.56 0 5.02 3.25 5.56 4.64 5.56 4.2 0 4.64-3.9 4.64-5.56 0-1.67-.45-5.56-4.64-5.56"/><path fill="#0C64AF" d="M129.78 29.9h-.38c-2.15 0-4.53 1.5-4.53 5.5v6.83h-1.47V28.37h1.47v3h.05c.77-2.1 2.64-3.15 4.7-3.15h.16v1.67z"/><path fill="#0C64AF" d="M125.03 42.4h-1.8V28.2h1.8v2.52c.87-1.68 2.54-2.66 4.6-2.66h.3v2h-.53c-2 0-4.37 1.4-4.37 5.33v7zm-1.47-.33h1.15V35.4c0-4.2 2.54-5.67 4.7-5.67h.22v-1.35c-2.15 0-3.85 1.14-4.55 3.06l-.04.1h-.32v-3h-1.14v13.53z"/><path fill="#0C64AF" d="M143.52 42.23h-1.47V40.1H142c-.96 1.45-2.63 2.35-4.6 2.35-3.75 0-5.3-2.05-5.3-5.4v-8.68h1.46v8.58c0 2.22.68 4.07 4.05 4.07 2.47 0 4.45-1.45 4.45-4.38v-8.27h1.47v13.86z"/><path fill="#0C64AF" d="M137.4 42.6c-3.63 0-5.47-1.86-5.47-5.54V28.2h1.8v8.75c0 1.93.45 3.9 3.88 3.9 2.08 0 4.3-1.1 4.3-4.2V28.2h1.78v14.2h-1.8v-1.87c-1.03 1.33-2.64 2.08-4.47 2.08zm-5.15-14.07v8.53c0 3.47 1.73 5.23 5.16 5.23 1.88 0 3.5-.84 4.47-2.3l.05-.07h.3v2.14h1.15V28.53h-1.16v8.1c0 2.77-1.8 4.55-4.6 4.55-3.72 0-4.2-2.26-4.2-4.23v-8.42h-1.15z"/><path fill="#0C64AF" d="M165.17 42.23h-1.48V34.5c0-2.6-.27-4.92-3.13-4.92-2.42 0-3.52 2.1-3.5 4.27v8.38h-1.5v-8.3c0-2.35-.43-4.37-3.1-4.37-2.06 0-3.5 1.87-3.5 4.3v8.37h-1.5V28.37h1.5v2.2h.05c.77-1.58 2.27-2.42 3.83-2.42 1.7 0 3.15 1.03 3.87 2.5h.05c.92-1.53 2.55-2.5 4.15-2.5 2.82 0 4.27 1.85 4.27 5.8l-.03 8.28z"/><path fill="#0C64AF" d="M165.33 42.4h-1.8v-7.9c0-2.5-.22-4.76-2.96-4.76-.9 0-1.64.3-2.22.87-.72.75-1.13 1.93-1.12 3.25v8.54h-1.8v-8.46c0-2.2-.37-4.22-2.95-4.22-1.94 0-3.34 1.74-3.34 4.15v8.52h-1.82V28.2h1.82v1.83c.8-1.3 2.17-2.04 3.7-2.04 1.62 0 3.1.9 3.9 2.37.98-1.45 2.6-2.38 4.18-2.38 2.94 0 4.43 2 4.43 5.96l-.02 8.43zm-1.47-.33H165l.03-8.1c0-3.8-1.34-5.66-4.1-5.66-1.56 0-3.14.96-4.03 2.44l-.04.08h-.24l-.04-.1c-.74-1.48-2.16-2.4-3.73-2.4-1.6 0-2.97.86-3.68 2.32l-.05.1h-.3v-2.2h-1.18v13.53h1.18v-8.2c0-2.6 1.54-4.47 3.66-4.47 2.87 0 3.26 2.3 3.26 4.54v8.13h1.17v-8.22c0-1.4.44-2.67 1.23-3.46.63-.65 1.46-.98 2.44-.98 3.03 0 3.3 2.5 3.3 5.1v7.55z"/><path fill="#0C64AF" d="M21.56 42.45C10.2 42.45 1 33.25 1 21.9 1 10.55 10.2 1.35 21.57 1.35c11.35 0 20.54 9.2 20.54 20.55 0 11.35-9.2 20.55-20.54 20.55"/><path fill="#0C64AF" d="M21.56 42.77C10.06 42.77.7 33.4.7 21.9c0-11.5 9.35-20.87 20.86-20.87 11.5 0 20.87 9.36 20.87 20.87 0 11.5-9.37 20.87-20.87 20.87m0-41.1C10.4 1.67 1.33 10.75 1.33 21.9s9.07 20.23 20.23 20.23c11.15 0 20.22-9.08 20.22-20.23S32.7 1.67 21.56 1.67"/><path fill="#FFF" d="M21.62 22.15c-.15 0-.28-.12-.28-.27v-6.6l-3.96-4.74c-.04-.05-.06-.1-.06-.17V4.2c0-.14.12-.26.27-.26.14 0 .26.12.26.27v6.07L21.83 15c.04.06.06.12.06.2v6.68c0 .15-.13.27-.28.27"/><path fill="#0C64AF" d="M19.03 4.45c-.06.8-.75 1.4-1.55 1.33-.8-.05-1.4-.75-1.34-1.54.06-.8.76-1.4 1.55-1.34.8.06 1.4.75 1.33 1.55"/><path fill="#FFF" d="M17.6 6.06h-.14c-.95-.07-1.66-.9-1.6-1.84.08-.95.9-1.66 1.85-1.6.96.08 1.67.9 1.6 1.85-.06.9-.82 1.6-1.7 1.6zm0-2.9c-.62 0-1.14.48-1.18 1.1-.05.64.44 1.2 1.08 1.25.64.06 1.2-.43 1.26-1.07.04-.65-.44-1.2-1.1-1.26h-.07zm1.43 1.3z"/><path fill="#FFF" d="M16.5 15.52c-.08 0-.16-.04-.2-.1l-2.07-2.58c-.1-.12-.07-.3.04-.4.12-.08.3-.06.4.06l1.88 2.36 2.84-2.2c.1-.08.28-.06.37.06.1.12.07.3-.05.38l-3.05 2.36c-.05.04-.1.06-.17.06"/><path fill="#E84133" d="M14.9 11.75c-.06.62-.6 1.08-1.2 1.04-.63-.06-1.1-.6-1.05-1.2.05-.63.6-1.1 1.2-1.05.62.05 1.08.58 1.04 1.2"/><path fill="#FFF" d="M13.77 13.06h-.1c-.37-.03-.7-.2-.96-.48-.23-.28-.35-.64-.32-1 .06-.78.73-1.36 1.5-1.3.76.05 1.34.72 1.28 1.5-.03.36-.2.7-.48.94-.25.23-.57.34-.9.34m0-2.24c-.45 0-.82.34-.85.8-.02.2.05.43.2.6.15.17.35.28.58.3.23 0 .45-.06.62-.2.18-.16.28-.36.3-.6.03-.46-.32-.86-.8-.9h-.05"/><path fill="#FFF" d="M21.62 15.46c-.08 0-.15-.03-.2-.1-.1-.1-.1-.28.02-.38l3.72-3.33v-3.5c0-.15.13-.27.28-.27.15 0 .27.12.27.27v3.62c0 .08-.02.15-.08.2L21.8 15.4c-.05.04-.12.06-.18.06"/><path fill="#FFF" d="M26.88 7.34c-.06.8-.75 1.4-1.55 1.34-.8-.06-1.4-.75-1.34-1.55.05-.8.75-1.4 1.54-1.34.8.05 1.4.74 1.34 1.54"/><path fill="#FFF" d="M25.44 8.84h-.12c-.88-.07-1.55-.84-1.48-1.72.06-.88.83-1.54 1.7-1.48.9.06 1.56.83 1.5 1.7-.07.85-.77 1.5-1.6 1.5zm0-2.9c-.67 0-1.24.52-1.3 1.2-.04.7.5 1.33 1.2 1.38.7.06 1.33-.48 1.38-1.2.06-.7-.48-1.32-1.2-1.37h-.08zm1.44 1.4z"/><path fill="#E84133" d="M22.8 10.5c-.04.6-.56 1.04-1.16 1-.6-.05-1.05-.57-1-1.17.04-.6.56-1.05 1.16-1 .6.04 1.05.56 1 1.16"/><path fill="#E84133" d="M21.72 11.6h-.1c-.3-.02-.6-.16-.8-.4-.22-.25-.32-.56-.3-.88.03-.32.17-.6.42-.82.24-.2.55-.3.87-.3.33.03.62.18.83.42.2.25.3.56.3.88-.06.63-.6 1.1-1.2 1.1m0-2.16c-.5 0-.94.4-.98.9-.03.53.37 1 .9 1.03.26.02.5-.06.7-.23.2-.17.32-.4.34-.66.03-.53-.38-1-.9-1.04h-.08"/><path fill="#FFF" d="M21.1 21.6c-.08 0-.15-.04-.2-.1l-3.3-3.46c-.1-.1-.1-.28 0-.38.1-.1.3-.1.4 0l3.3 3.47c.1.1.1.28-.02.38-.05.07-.12.1-.18.1"/><path fill="#0C64AF" d="M14.6 11.73c-.03.46-.43.8-.9.77-.45-.03-.8-.43-.77-.9.04-.46.44-.8.9-.77.46.04.8.44.78.9"/><path fill="#FFF" d="M13.77 12.7h-.07c-.57-.06-1-.55-.95-1.1.04-.57.53-1 1.1-.95.27.02.52.14.7.35.17.2.26.47.24.74-.05.54-.5.95-1.03.95zm0-1.7c-.34 0-.63.28-.65.62-.03.36.24.68.6.7.36.03.68-.24.7-.6.03-.36-.24-.68-.6-.7h-.05zm.84.73z"/><path fill="#FFF" d="M9.18 11.42c-.08 0-.16-.04-.2-.1-.1-.13-.08-.3.04-.4l3.87-2.98c.04-.04.1-.06.16-.06h4.53c.14 0 .26.12.26.27 0 .15-.12.28-.27.28h-4.45l-3.8 2.93c-.05.04-.1.06-.17.06"/><path fill="#FFF" d="M9.95 11.98c-.06.8-.76 1.4-1.55 1.33-.8-.05-1.4-.74-1.34-1.54.06-.8.75-1.4 1.55-1.33.8.06 1.4.75 1.35 1.55"/><path fill="#FFF" d="M8.5 13.6c-.04 0-.08 0-.12-.02-.46-.03-.88-.24-1.18-.6-.3-.34-.45-.78-.4-1.24.02-.46.23-.87.58-1.17.35-.3.8-.45 1.25-.42.95.07 1.66.9 1.6 1.85-.08.9-.83 1.6-1.73 1.6zm0-2.9c-.28 0-.55.1-.76.28-.24.2-.38.5-.4.8-.03.32.07.62.27.86.22.23.5.38.82.4.64.05 1.2-.44 1.25-1.08.05-.65-.44-1.2-1.08-1.26h-.1zm1.45 1.28z"/><path fill="#E84133" d="M9.34 11.93c-.03.46-.44.8-.9.78-.46-.03-.8-.43-.77-.9.03-.45.43-.8.9-.77.46.04.8.44.77.9"/><path fill="#E84133" d="M8.5 12.8h-.07c-.5-.04-.9-.5-.85-1 .04-.5.48-.9 1-.86.5.04.9.5.85 1-.02.25-.13.47-.32.63-.16.15-.37.23-.6.23m0-1.68c-.4 0-.7.3-.74.7-.03.4.28.77.7.8.4.03.76-.28.8-.7.02-.4-.3-.77-.7-.8H8.5"/><path fill="#FFF" d="M17.8 18.13h-3.3c-.1 0-.17-.04-.22-.1L12.9 16.2c-.08-.12-.06-.3.06-.38.12-.1.3-.07.38.05l1.3 1.7h3.15c.14 0 .27.13.27.28 0 .15-.13.28-.28.28"/><path fill="#FFF" d="M13.44 15.3c-.04.47-.44.8-.9.78-.46-.04-.8-.44-.78-.9.04-.46.44-.8.9-.77.46.04.8.44.78.9"/><path fill="#FFF" d="M12.6 16.17h-.07c-.5-.04-.9-.5-.86-1 .02-.24.14-.47.32-.63.18-.16.42-.24.67-.22.5.03.9.48.86 1-.02.24-.14.46-.32.63-.16.14-.38.22-.6.22m0-1.68c-.4 0-.72.3-.75.7-.03.4.28.76.7.8.2 0 .4-.06.54-.2.14-.12.23-.3.25-.5.03-.4-.28-.77-.7-.8h-.05"/><path fill="#0C64AF" d="M18.63 17.92c-.04.46-.44.8-.9.77-.46-.04-.8-.45-.77-.9.03-.47.43-.82.9-.78.46.03.8.43.77.9"/><path fill="#FFF" d="M17.8 18.92h-.1c-.27-.02-.53-.15-.7-.37-.2-.2-.3-.5-.27-.77.02-.3.15-.55.37-.73.2-.2.5-.28.77-.26.3 0 .54.14.73.36.2.2.28.5.26.77-.05.56-.5 1-1.07 1m0-1.7c-.15 0-.3.07-.4.16-.13.1-.2.25-.22.4 0 .17.04.33.15.45.1.13.26.2.42.2.16.03.32-.03.44-.13.1-.1.2-.26.2-.42 0-.16-.04-.32-.15-.44-.1-.13-.25-.2-.4-.2l-.06-.02"/><path fill="#FFF" d="M10.07 26.15H3.92c-.15 0-.28-.12-.28-.28 0-.15.13-.27.28-.27h6.05l4.74-3.96c.06-.04.13-.07.2-.07h6.7c.14 0 .26.13.26.28 0 .15-.12.27-.27.27H15l-4.75 3.96c-.05.04-.1.07-.18.07"/><path fill="#0C64AF" d="M4.15 24.43c.8.06 1.4.76 1.34 1.55-.07.8-.76 1.4-1.56 1.34-.8-.06-1.4-.75-1.34-1.55.06-.8.76-1.4 1.55-1.34"/><path fill="#FFF" d="M4.05 27.6h-.13c-.95-.08-1.66-.9-1.6-1.85.08-.95.9-1.66 1.85-1.6.95.08 1.66.9 1.6 1.85-.07.9-.83 1.6-1.72 1.6m0-2.9c-.6 0-1.13.48-1.17 1.1-.05.64.44 1.2 1.08 1.25.64.04 1.2-.44 1.26-1.1.04-.63-.44-1.2-1.1-1.24h-.07"/><path fill="#FFF" d="M12.37 29.3c-.08 0-.16-.04-.2-.1-.1-.13-.1-.3.03-.4l2.37-1.88-2.2-2.84c-.1-.12-.07-.3.05-.4.12-.08.3-.06.4.06l2.34 3.06c.1.1.07.28-.04.38l-2.58 2.05c-.05.04-.1.06-.17.06"/><path fill="#E41514" d="M11.46 28.58c.6.04 1.08.58 1.03 1.2-.05.6-.6 1.08-1.2 1.03-.63-.03-1.1-.57-1.05-1.2.05-.6.6-1.07 1.2-1.02"/><path fill="#FFF" d="M11.38 31.1c-.04 0-.07 0-.1-.02-.38-.02-.72-.2-.96-.47-.25-.28-.37-.64-.34-1 .06-.78.73-1.35 1.5-1.3.76.06 1.34.73 1.28 1.5-.02.37-.2.7-.48.95-.25.22-.57.34-.9.34m0-2.25c-.45 0-.82.34-.85.78-.02.23.05.45.2.62.15.17.35.27.58.3.24 0 .46-.07.63-.2.17-.16.27-.37.3-.6.02-.46-.33-.87-.8-.9h-.06"/><path fill="#FFF" d="M14.9 22.12c-.1 0-.16-.03-.2-.1l-3.35-3.72h-3.5c-.15 0-.27-.12-.27-.27 0-.15.12-.28.28-.28h3.6c.1 0 .16.04.22.1l3.4 3.8c.1.13.1.3 0 .4-.06.05-.13.07-.2.07"/><path fill="#FFF" d="M7.05 16.6c.8.04 1.4.74 1.33 1.53-.06.8-.75 1.4-1.55 1.34-.8-.06-1.4-.75-1.33-1.55.06-.8.75-1.4 1.55-1.33"/><path fill="#FFF" d="M6.94 19.63h-.12c-.88-.07-1.54-.84-1.48-1.72.07-.87.83-1.53 1.72-1.47.42.03.8.23 1.1.55.27.32.4.74.38 1.17-.03.42-.23.8-.55 1.1-.3.24-.67.38-1.06.38m0-2.9c-.67 0-1.24.53-1.3 1.2-.04.7.5 1.33 1.2 1.4.35 0 .68-.1.94-.32.26-.22.42-.53.45-.88.05-.7-.5-1.33-1.2-1.38h-.1"/><path fill="#E84133" d="M10.2 20.66c.6.05 1.04.57 1 1.16-.05.6-.57 1.05-1.17 1-.6-.04-1.04-.56-1-1.16.05-.6.57-1.04 1.16-1"/><path fill="#E84133" d="M10.12 22.95h-.1c-.3-.03-.6-.18-.82-.42-.2-.24-.3-.55-.28-.88.04-.66.62-1.15 1.28-1.1.32.02.6.16.82.4.2.25.32.56.3.88-.03.32-.18.6-.42.82-.22.2-.5.3-.78.3m0-2.18c-.24 0-.46.1-.64.24-.2.18-.3.4-.33.67-.02.26.06.5.23.7.17.2.4.32.66.34.26.03.5-.05.7-.22.2-.17.32-.4.34-.67.02-.24-.06-.5-.23-.7-.17-.2-.4-.3-.66-.32h-.1"/><path fill="#FFF" d="M17.56 25.94c-.07 0-.15-.02-.2-.08-.1-.1-.1-.28 0-.4l3.47-3.3c.1-.1.28-.1.4.02.1.1.1.28-.02.4l-3.45 3.3c-.06.04-.12.06-.2.06"/><path fill="#0C64AF" d="M11.43 28.86c.47.03.8.43.78.9-.03.46-.43.8-.9.77-.45-.03-.8-.44-.76-.9.03-.46.43-.8.9-.77"/><path fill="#FFF" d="M11.37 30.7h-.07c-.27 0-.52-.13-.7-.34-.18-.2-.27-.47-.25-.74.05-.56.54-.98 1.1-.94.56.04.98.53.94 1.1-.05.52-.5.93-1.03.93m0-1.66c-.34 0-.63.26-.65.6 0 .18.04.35.16.48.1.14.27.22.44.23.36.02.68-.25.7-.6.03-.37-.24-.68-.6-.7h-.05"/><path fill="#FFF" d="M10.85 34.56c-.1 0-.17-.04-.22-.1l-3-3.9c-.03-.03-.05-.1-.05-.15V25.9c0-.15.13-.28.28-.28.15 0 .27.13.27.28v4.43l2.93 3.8c.1.13.07.3-.05.4-.04.04-.1.06-.15.06"/><path fill="#FFF" d="M11.68 33.52c.8.06 1.4.75 1.34 1.55-.06.8-.76 1.4-1.55 1.33-.8-.06-1.4-.75-1.34-1.55.06-.8.75-1.4 1.55-1.33"/><path fill="#FFF" d="M11.58 36.68h-.13c-.46-.04-.88-.25-1.18-.6-.3-.34-.44-.8-.4-1.25.02-.45.23-.87.58-1.17.35-.3.8-.45 1.25-.4.46.02.88.23 1.18.58.3.35.44.8.4 1.25-.06.9-.8 1.58-1.7 1.58m0-2.9c-.3 0-.56.1-.77.3-.23.2-.37.48-.4.8-.02.3.08.6.3.85.2.23.48.38.8.4.63.05 1.2-.44 1.24-1.08.03-.3-.07-.62-.28-.85-.2-.24-.5-.4-.8-.4h-.1"/><path fill="#E84133" d="M11.64 34.13c.46.03.8.43.77.9-.02.45-.43.8-.9.77-.45-.04-.8-.44-.76-.9.03-.46.43-.8.9-.77"/><path fill="#E84133" d="M11.57 35.9h-.06c-.5-.05-.9-.5-.85-1 .04-.52.48-.9 1-.86.5.03.9.48.85 1-.04.48-.44.85-.93.85m0-1.7c-.38 0-.7.3-.74.7-.03.42.28.78.7.8.4.04.76-.27.8-.68.02-.42-.3-.77-.7-.8h-.06"/><path fill="#FFF" d="M15.74 30.6c-.08 0-.16-.03-.22-.1-.1-.12-.06-.3.06-.38l1.7-1.3v-3.15c0-.15.13-.27.28-.27.15 0 .27.12.27.27v3.3c0 .1-.04.17-.1.22l-1.82 1.36c-.04.03-.1.05-.16.05"/><path fill="#FFF" d="M15 30.03c.47.03.82.43.78.9-.03.46-.43.8-.9.77-.46-.03-.8-.44-.77-.9.05-.46.45-.8.9-.77"/><path fill="#FFF" d="M14.95 31.8h-.07c-.5-.05-.9-.5-.86-1 .02-.25.13-.48.32-.64.2-.16.43-.24.68-.22.24.02.47.13.63.32.16.2.24.43.22.67-.03.5-.44.86-.92.86m0-1.68c-.4 0-.72.3-.75.7-.03.4.28.76.7.8.4.02.76-.3.8-.7 0-.2-.06-.4-.2-.54-.12-.16-.3-.25-.5-.26h-.05"/><path fill="#0C64AF" d="M17.62 24.84c.46.03.8.43.77.9-.04.45-.44.8-.9.77-.46-.03-.8-.43-.78-.9.04-.45.44-.8.9-.76"/><path fill="#FFF" d="M17.56 26.74h-.08c-.6-.05-1.03-.56-.98-1.15.02-.3.15-.55.36-.74.22-.18.5-.28.78-.25.28.03.54.16.73.37.18.22.27.5.25.78-.04.56-.5 1-1.06 1m0-1.7c-.15 0-.3.06-.4.16-.12.12-.2.26-.2.43-.03.33.22.62.55.65.34.02.64-.23.67-.56 0-.17-.04-.32-.15-.45-.1-.12-.25-.2-.42-.2h-.04"/><path fill="#FFF" d="M25.64 39.84c-.15 0-.27-.12-.27-.27V33.5l-3.96-4.73c-.04-.05-.06-.1-.06-.18v-6.7c0-.15.12-.27.28-.27.15 0 .27.12.27.27v6.6l3.95 4.74c.04.05.07.1.07.17v6.17c0 .15-.13.27-.28.27"/><path fill="#0C64AF" d="M24.2 39.33c.06-.8.75-1.4 1.55-1.33.8.05 1.4.75 1.34 1.54-.07.8-.76 1.4-1.56 1.34-.8-.06-1.4-.75-1.34-1.55"/><path fill="#FFF" d="M25.65 41.16h-.13c-.46-.04-.88-.25-1.18-.6-.3-.35-.44-.8-.4-1.25.02-.45.23-.86.58-1.16.35-.3.8-.45 1.25-.42.46.04.88.25 1.18.6.3.34.44.8.4 1.25-.06.9-.8 1.6-1.7 1.6zm0-2.9c-.3 0-.56.1-.77.3-.24.2-.38.48-.4.8-.03.3.07.6.28.84.2.24.5.4.8.4.3.03.6-.07.85-.27s.4-.5.42-.8c.02-.32-.08-.62-.3-.86-.2-.23-.48-.38-.8-.4h-.08zm-1.45 1.07z"/><path fill="#FFF" d="M28.8 31.4c-.1 0-.17-.05-.23-.1L26.7 28.9l-2.86 2.2c-.1.08-.3.06-.38-.06-.1-.12-.07-.3.05-.38l3.06-2.36c.12-.1.3-.07.4.05L29 30.94c.1.12.08.3-.04.4-.05.03-.1.05-.17.05"/><path fill="#E84133" d="M28.34 32.03c.05-.62.6-1.08 1.2-1.04.62.04 1.1.58 1.04 1.2-.05.6-.58 1.08-1.2 1.03-.62-.05-1.08-.58-1.04-1.2"/><path fill="#FFF" d="M29.46 33.5h-.1c-.77-.05-1.35-.72-1.3-1.5.04-.36.2-.7.5-.94.27-.25.63-.37 1-.34.38.03.7.2.96.48.24.28.36.64.33 1.02-.05.73-.66 1.3-1.4 1.3m0-2.26c-.2 0-.4.08-.54.2-.16.16-.27.36-.28.6-.04.46.3.86.78.9.47.04.87-.32.9-.8.02-.2-.05-.43-.2-.6-.14-.17-.35-.28-.58-.3h-.06"/><path fill="#FFF" d="M17.8 35.9c-.16 0-.28-.12-.28-.27V32c0-.07.04-.14.1-.2l3.8-3.4c.13-.1.3-.1.4 0 .1.13.1.3-.02.4l-3.73 3.33v3.5c0 .15-.12.27-.27.27"/><path fill="#FFF" d="M16.35 36.44c.06-.8.76-1.4 1.55-1.34.8.06 1.4.75 1.34 1.55-.06.8-.75 1.4-1.55 1.34-.8-.07-1.4-.76-1.35-1.56"/><path fill="#FFF" d="M17.8 38.15h-.12c-.43-.04-.82-.23-1.1-.56-.28-.33-.4-.75-.38-1.17.03-.43.22-.82.55-1.1.32-.28.74-.42 1.16-.38.44.03.83.22 1.1.55.3.32.42.74.4 1.16-.07.84-.77 1.5-1.6 1.5zm0-2.9c-.32 0-.6.1-.85.32-.26.22-.42.54-.44.88-.02.34.1.68.32.94.22.25.54.4.88.43.7.05 1.33-.48 1.38-1.2.03-.33-.08-.67-.3-.93-.23-.26-.55-.42-.9-.44h-.1zm-1.45 1.2z"/><path fill="#E84133" d="M20.43 33.3c.04-.6.56-1.06 1.16-1 .6.03 1.04.55 1 1.15-.05.6-.57 1.05-1.17 1-.6-.04-1.04-.56-1-1.16"/><path fill="#E84133" d="M21.5 34.57h-.08c-.66-.05-1.16-.63-1.1-1.3.04-.65.62-1.14 1.28-1.1.66.05 1.16.63 1.1 1.3-.04.62-.56 1.1-1.2 1.1m-.95-1.27c-.04.53.36 1 .9 1.04.52.04 1-.37 1.03-.9.04-.53-.36-1-.9-1.03-.53-.04-1 .37-1.03.9"/><path fill="#FFF" d="M25.44 26.2c-.07 0-.14-.03-.2-.1l-3.3-3.45c-.1-.1-.1-.28 0-.38.12-.1.3-.1.4 0l3.3 3.47c.1.1.1.28 0 .38-.07.05-.13.08-.2.08"/><path fill="#0C64AF" d="M28.63 32.05c.03-.46.43-.8.9-.77.46.03.8.43.77.9-.04.46-.44.8-.9.77-.46-.04-.8-.44-.77-.9"/><path fill="#FFF" d="M29.46 33.13h-.07c-.57-.04-1-.53-.96-1.1.02-.26.15-.5.36-.7.2-.17.47-.25.74-.24.27 0 .52.14.7.35.17.2.26.46.24.74-.04.52-.5.93-1.02.93m0-1.67c-.16 0-.3.05-.43.16-.13.1-.2.27-.22.44-.02.36.25.68.6.7.37.03.7-.24.72-.6 0-.17-.05-.34-.16-.48-.12-.13-.28-.2-.45-.22h-.04"/><path fill="#FFF" d="M30.17 35.9h-4.53c-.15 0-.27-.12-.27-.27 0-.15.12-.27.27-.27h4.44l3.8-2.94c.12-.1.3-.07.4.05.08.12.06.3-.06.4l-3.88 2.98c-.05.03-.1.05-.17.05"/><path fill="#FFF" d="M33.3 31.8c.05-.8.74-1.4 1.54-1.33.8.06 1.4.75 1.33 1.55-.06.8-.75 1.4-1.55 1.33-.8-.06-1.4-.75-1.33-1.55"/><path fill="#FFF" d="M34.73 33.63h-.13c-.46-.04-.87-.25-1.17-.6-.3-.34-.45-.8-.42-1.25.05-.45.26-.87.6-1.17.35-.3.8-.44 1.25-.4.95.07 1.66.9 1.6 1.84-.07.9-.83 1.6-1.72 1.6zm0-2.9c-.28 0-.55.1-.77.3-.23.2-.38.48-.4.8-.02.3.08.6.28.85.2.23.5.38.8.4.65.05 1.2-.44 1.26-1.08.05-.65-.44-1.2-1.1-1.26h-.07zM33.3 31.8z"/><path fill="#E84133" d="M33.9 31.85c.03-.46.43-.8.9-.78.45.04.8.44.77.9-.04.46-.44.8-.9.78-.46-.04-.8-.44-.78-.9"/><path fill="#E84133" d="M34.73 32.84h-.07c-.5-.04-.9-.5-.86-1 .02-.25.14-.47.32-.63.2-.15.43-.23.68-.22.24.02.47.14.63.32.16.2.24.43.22.68-.03.5-.44.86-.92.86m0-1.68c-.18 0-.35.07-.5.18-.14.13-.23.32-.25.5-.03.43.28.8.7.82.4.03.76-.28.8-.7 0-.2-.05-.4-.18-.54-.14-.15-.32-.24-.52-.26h-.05"/><path fill="#FFF" d="M30.1 28.02c-.08 0-.16-.04-.2-.1l-1.3-1.72h-3.16c-.15 0-.27-.12-.27-.27 0-.16.12-.28.27-.28h3.3c.08 0 .17.04.22.1l1.37 1.83c.1.12.06.3-.06.38-.05.04-.1.06-.16.06"/><path fill="#FFF" d="M29.8 28.48c.03-.47.43-.8.9-.78.46.04.8.44.77.9-.04.46-.44.8-.9.77-.46-.03-.8-.43-.77-.9"/><path fill="#FFF" d="M30.63 29.47h-.07c-.5-.04-.9-.5-.85-1 .02-.25.14-.47.33-.63.18-.17.42-.25.67-.23.5.05.9.5.86 1-.02.25-.13.48-.32.64-.17.15-.38.23-.6.23m0-1.68c-.2 0-.36.05-.5.17-.15.13-.24.3-.25.5-.04.42.27.78.68.8.2.03.4-.03.54-.17.15-.13.24-.3.26-.5.03-.42-.28-.78-.7-.8h-.05"/><path fill="#0C64AF" d="M24.6 25.86c.04-.46.44-.8.9-.77.46.02.8.43.78.9-.04.45-.44.8-.9.76-.46-.03-.8-.43-.78-.9"/><path fill="#FFF" d="M25.44 27h-.08c-.6-.05-1.03-.57-.98-1.15.02-.3.15-.54.36-.73.22-.2.5-.28.78-.26.28.02.54.15.73.37.18.22.27.5.25.77-.04.56-.5 1-1.06 1m0-1.68c-.15 0-.3.05-.4.14-.12.1-.2.26-.2.42-.03.34.22.63.55.65.33.03.62-.22.65-.56 0-.16-.04-.32-.15-.44-.1-.13-.25-.2-.42-.2h-.04"/><path fill="#FFF" d="M28.25 22.16h-6.7c-.15 0-.27-.12-.27-.27 0-.16.12-.3.28-.3h6.6l4.73-3.95c.04-.04.1-.06.17-.06h6.15c.16 0 .28.1.28.26 0 .15-.12.27-.28.27h-6.05l-4.74 3.97c-.05.04-.1.06-.18.06"/><path fill="#0C64AF" d="M39 19.3c-.8-.06-1.4-.75-1.35-1.55.06-.8.75-1.4 1.55-1.34.8.07 1.4.77 1.34 1.56-.06.8-.76 1.4-1.55 1.34"/><path fill="#FFF" d="M39.1 19.58h-.13c-.95-.08-1.66-.9-1.6-1.85.04-.46.25-.88.6-1.18.35-.3.8-.44 1.25-.4.46.02.88.24 1.18.58.3.35.44.8.4 1.25-.02.46-.23.88-.58 1.18-.32.27-.7.42-1.12.42m-.1-.55c.32.02.62-.08.86-.3.24-.2.38-.47.4-.8.03-.3-.07-.6-.28-.84-.2-.25-.5-.4-.8-.4-.3-.04-.6.06-.85.27-.24.2-.38.5-.4.8-.05.65.43 1.2 1.08 1.26"/><path fill="#FFF" d="M30.55 20.1c-.08 0-.16-.04-.22-.1l-2.35-3.06c-.1-.12-.07-.3.04-.38l2.58-2.06c.12-.1.3-.07.38.04.1.12.08.3-.04.4l-2.37 1.88 2.2 2.84c.1.12.07.3-.05.38-.05.04-.1.06-.17.06"/><path fill="#E84133" d="M31.7 15.16c-.63-.05-1.1-.58-1.05-1.2.05-.62.58-1.08 1.2-1.04.62.05 1.08.58 1.04 1.2-.06.62-.6 1.08-1.2 1.04"/><path fill="#FFF" d="M31.77 15.44h-.1c-.77-.06-1.35-.74-1.3-1.5.06-.77.73-1.35 1.5-1.3.77.07 1.35.74 1.3 1.5-.04.37-.2.7-.5.96-.25.22-.57.34-.9.34m0-2.25c-.44 0-.8.33-.85.78-.03.46.32.87.8.9.2.02.43-.05.6-.2.17-.15.28-.35.3-.58.03-.46-.32-.87-.8-.9h-.05"/><path fill="#FFF" d="M35.3 25.98h-3.63c-.08 0-.15-.03-.2-.1l-3.42-3.8c-.1-.12-.1-.3.02-.4.1-.1.3-.1.4.02l3.32 3.73h3.5c.14 0 .26.13.26.28 0 .16-.12.28-.27.28"/><path fill="#FFF" d="M36.1 27.15c-.8-.06-1.4-.75-1.34-1.55.06-.8.75-1.4 1.55-1.34.8.06 1.4.76 1.34 1.55-.06.8-.75 1.4-1.55 1.35"/><path fill="#FFF" d="M36.2 27.3h-.12c-.88-.06-1.54-.83-1.48-1.7.07-.9.84-1.56 1.72-1.5.43.04.82.24 1.1.56.27.32.4.74.38 1.16-.03.43-.23.82-.55 1.1-.3.25-.66.4-1.05.4m0-2.9c-.67 0-1.24.5-1.3 1.2 0 .34.1.67.32.93.23.26.54.42.9.44.33.02.66-.1.92-.32.27-.22.42-.54.45-.88 0-.34-.1-.68-.32-.94-.23-.26-.54-.42-.88-.44h-.1"/><path fill="#E84133" d="M32.95 23.07c-.6-.04-1.05-.56-1-1.16.04-.6.56-1.04 1.16-1 .6.05 1.05.57 1 1.17-.03.6-.55 1.05-1.15 1"/><path fill="#E84133" d="M33.03 23.2h-.1c-.3-.03-.6-.18-.8-.42-.22-.25-.33-.56-.3-.88.05-.66.62-1.16 1.3-1.1.3 0 .6.16.8.4.22.25.32.56.3.88-.03.32-.17.6-.42.82-.2.2-.48.3-.77.3m0-2.18c-.5 0-.93.4-.97.9-.02.26.06.5.23.7.16.2.4.32.66.34.25 0 .5-.07.7-.24.2-.17.3-.4.33-.66 0-.26-.07-.5-.24-.7-.17-.2-.4-.32-.66-.34h-.07"/><path fill="#FFF" d="M22.12 21.64c-.07 0-.14-.03-.2-.1-.1-.1-.1-.27 0-.37l3.47-3.3c.1-.1.28-.1.38 0 .1.1.1.3 0 .4l-3.47 3.3c-.04.04-.1.07-.18.07"/><path fill="#0C64AF" d="M31.7 14.88c-.46-.04-.8-.44-.77-.9.04-.46.44-.8.9-.78.46.04.8.44.77.9-.03.46-.43.8-.9.78"/><path fill="#FFF" d="M31.77 15.06h-.08c-.57-.04-1-.53-.95-1.1.04-.56.53-.98 1.1-.94.55.04.98.53.94 1.1-.05.53-.5.94-1.03.94m-.05-.37c.17 0 .34-.05.48-.16.13-.12.2-.28.22-.45.03-.37-.24-.7-.6-.7-.36-.04-.68.23-.7.6-.03.35.24.67.6.7"/><path fill="#FFF" d="M35.3 18.13c-.17 0-.3-.12-.3-.27v-4.44l-2.92-3.8c-.1-.12-.07-.3.05-.38.12-.1.3-.07.38.04l3 3.88c.04.05.06.1.06.17v4.53c0 .15-.12.27-.27.27"/><path fill="#FFF" d="M31.46 10.22c-.8-.06-1.4-.76-1.34-1.55.06-.8.76-1.4 1.55-1.34.8.06 1.4.75 1.34 1.55-.05.8-.74 1.4-1.54 1.34"/><path fill="#FFF" d="M31.57 10.5h-.13c-.46-.05-.88-.26-1.18-.6-.3-.35-.44-.8-.4-1.25.03-.46.24-.88.58-1.18.35-.3.8-.44 1.25-.4.94.06 1.65.88 1.58 1.83-.06.9-.82 1.6-1.7 1.6m-.1-.56c.64.05 1.2-.44 1.26-1.08.04-.65-.44-1.2-1.1-1.26-.3-.02-.6.08-.84.3-.24.2-.38.47-.4.8-.03.3.07.6.28.84.2.24.5.38.8.4"/><path fill="#E84133" d="M31.5 9.6c-.46-.03-.8-.43-.77-.9.04-.45.44-.8.9-.76.46.03.8.43.77.9-.03.46-.43.8-.9.77"/><path fill="#E84133" d="M31.57 9.7h-.07c-.5-.04-.9-.48-.86-1 .02-.24.13-.47.32-.63.2-.16.43-.24.68-.22.5.03.9.48.85 1-.04.48-.45.85-.93.85m-.06-.18c.42.03.78-.28.8-.7.04-.4-.27-.76-.68-.8-.2 0-.4.06-.54.2-.15.12-.24.3-.26.5-.03.4.28.77.7.8"/><path fill="#FFF" d="M25.58 18.34c-.15 0-.27-.13-.27-.28v-3.3c0-.08.05-.16.12-.2l1.8-1.38c.14-.1.3-.07.4.05.1.12.06.3-.06.38l-1.7 1.3v3.16c0 .15-.13.28-.28.28"/><path fill="#FFF" d="M28.13 13.7c-.46-.03-.8-.43-.77-.9.03-.45.43-.8.9-.77.46.04.8.44.77.9-.03.46-.44.8-.9.78"/><path fill="#FFF" d="M28.2 13.8h-.07c-.5-.04-.9-.5-.86-1 .04-.5.48-.9 1-.86.24.02.46.14.63.32.16.2.24.43.22.68-.04.5-.44.86-.93.86m-.06-.18c.4.03.77-.28.8-.7.03-.4-.28-.77-.7-.8-.4-.03-.76.28-.8.7-.02.4.3.77.7.8"/><path fill="#0C64AF" d="M25.52 18.9c-.46-.04-.8-.44-.77-.9.03-.46.43-.8.9-.77.46.03.8.43.77.9-.04.46-.44.8-.9.77"/><path fill="#FFF" d="M25.58 19.13h-.08c-.58-.05-1.02-.56-.98-1.14.04-.6.56-1.05 1.14-1 .6.04 1.03.55 1 1.14-.06.56-.52 1-1.08 1m-.04-.47c.33.03.63-.23.65-.56 0-.16-.05-.3-.16-.44-.1-.12-.25-.2-.4-.2-.35-.03-.64.22-.67.56-.02.33.23.63.57.65"/><path fill="#E84133" d="M21.62 24.66c-1.56 0-2.8-1.26-2.8-2.8 0-1.56 1.24-2.82 2.8-2.82 1.55 0 2.8 1.26 2.8 2.8 0 1.56-1.25 2.82-2.8 2.82"/></g></svg>
