<svg xmlns="http://www.w3.org/2000/svg" id="Layer_1" viewBox="0 0 162.4 47.3"><style>.st0{fill:#0AC7D9;} .st1{fill:#FFFFFF;} .st2{fill:#3D5D77;} .st3{fill:#DFEDF1;} .st4{opacity:0.5;fill:#9B9C9E;} .st5{opacity:0.5;fill:none;stroke:#9B9C9E;stroke-miterlimit:10;} .st6{fill:none;stroke:#0AC7D9;stroke-miterlimit:10;} .st7{fill:none;stroke:#DFEDF1;stroke-width:1.2831;stroke-miterlimit:10;} .st8{fill:#90A3AF;} .st9{fill:none;stroke:#0AC7D9;stroke-width:0.825;stroke-miterlimit:10;} .st10{opacity:0.5;fill:none;stroke:#CCCCCC;stroke-width:0.25;stroke-miterlimit:10;} .st11{fill:#FFFFFF;stroke:#3D5D77;stroke-width:0.75;stroke-miterlimit:10;} .st12{fill:#FFDD71;} .st13{fill:#6997B7;} .st14{opacity:0.5;fill:none;stroke:#0AC7D9;stroke-miterlimit:10;} .st15{fill:none;stroke:#3D5D77;stroke-width:1.5;stroke-miterlimit:10;} .st16{fill:#1C304A;} .st17{fill:#FFF6DE;} .st18{fill:none;stroke:#FFDD71;stroke-miterlimit:10;} .st19{fill:none;stroke:#FFDD71;stroke-width:0.825;stroke-miterlimit:10;} .st20{fill:#F2F2F2;} .st21{fill:none;stroke:#666666;stroke-width:2;stroke-miterlimit:10;stroke-dasharray:1.5,3;} .st22{fill:#808080;} .st23{fill:#333333;} .st24{fill:#C9B57D;} .st25{fill:#A4B8BC;} .st26{fill:none;stroke:#CCCCCC;stroke-width:0.25;stroke-miterlimit:10;} .st27{fill:none;stroke:#3D5D77;stroke-miterlimit:10;} .st28{fill:none;stroke:#1C304A;stroke-width:0.9576;stroke-miterlimit:10;}</style><path d="M55.4 24.4c0-7.1 5.2-12.7 12.6-12.7 7.3 0 12.6 5.5 12.6 12.7C80.5 31.5 75.3 37 68 37c-7.4 0-12.6-5.5-12.6-12.6m21.7 0c0-5.3-3.6-9.6-9.1-9.6s-9.1 4.3-9.1 9.6S62.5 34 68 34s9.1-4.4 9.1-9.6" class="st1"/><path d="M102 17.5c-1.4-1.8-3.6-2.8-5.8-2.8-5.4 0-9 4.3-9 9.8 0 5.1 3.4 9.4 9 9.4 2.8 0 4.9-1.2 6.3-3.2l2.8 2.1c-.7 1-3.6 4.2-9.1 4.2-7.7 0-12.4-6.4-12.4-12.5 0-7.5 5.1-12.9 12.6-12.9 3.2 0 6.5 1.2 8.4 3.7l-2.8 2.2z" class="st1"/><path d="M109.2 12.3h3.3v10h12.4v-10h3.3v24.1h-3.3v-11h-12.4v11h-3.3z" class="st1"/><path d="M142 12.3h3l10.3 24.1h-3.8l-2.4-6h-11.5l-2.4 6h-3.8L142 12.3zm5.8 15.3l-4.5-11.1h-.1l-4.6 11.1h9.2z" class="st1"/><path d="M24.6 20.6c0-1.8 1.5-3.3 3.3-3.3 1.8 0 3.3 1.5 3.3 3.3 0 1.8-1.5 3.3-3.3 3.3v-.4c1.6 0 2.9-1.3 2.9-2.9 0-1.6-1.3-2.9-2.9-2.9-1.6 0-2.9 1.3-2.9 2.9 0 1.6 1.3 2.9 2.9 2.9v.4c-1.8 0-3.3-1.5-3.3-3.3" class="st1"/><path d="M22 20.6c0-3.3 2.7-6 6-6s6 2.7 6 6-2.7 6-6 6v-.4c3.1 0 5.6-2.5 5.6-5.6 0-3.1-2.5-5.6-5.6-5.6-3.1 0-5.6 2.5-5.6 5.6 0 3.1 2.5 5.6 5.6 5.6v.4c-3.3 0-6-2.7-6-6" class="st1"/><path d="M19.1 20.6c0-4.9 4-8.9 8.9-8.9s8.9 4 8.9 8.9-4 8.9-8.9 8.9V29c4.7 0 8.4-3.8 8.5-8.4 0-4.7-3.8-8.4-8.5-8.5-4.7 0-8.4 3.8-8.5 8.5 0 4.7 3.8 8.4 8.5 8.4v.4c-4.9.1-8.9-3.9-8.9-8.8" class="st1"/><path d="M16.3 20.6C16.3 14.2 21.5 9 28 9c6.4 0 11.6 5.2 11.6 11.6 0 6.4-5.2 11.6-11.6 11.6v-.4c6.2 0 11.2-5 11.2-11.2 0-6.2-5-11.2-11.2-11.2-6.2 0-11.2 5-11.2 11.2 0 6.2 5 11.2 11.2 11.2v.4c-6.5 0-11.7-5.2-11.7-11.6" class="st1"/><path d="M13.3 20.6c0-8.1 6.6-14.7 14.7-14.7s14.7 6.6 14.7 14.7S36.1 35.3 28 35.3v-.4c7.9 0 14.3-6.4 14.3-14.3S35.9 6.3 28 6.3s-14.3 6.4-14.3 14.3S20.1 34.9 28 34.9v.4c-8.2 0-14.7-6.6-14.7-14.7" class="st1"/><path d="M27.7 6.1h.4v11.4h-.4z" class="st1"/><path d="M17.6 10.5l.3-.3 8 8-.3.3z" class="st1"/><path d="M13.5 20.4h11.4v.4H13.5z" class="st1"/><path d="M17.6 30.7l8-8 .3.3-8 8z" class="st1"/><path d="M27.7 23.7h.4v11.4h-.4z" class="st1"/><path d="M30.02 22.9l.28-.3 7.97 8.03-.28.28z" class="st1"/><path d="M31.1 20.4h11.4v.4H31.1z" class="st1"/><path d="M30 18.2l8.1-8 .2.3-8 8z" class="st1"/><path d="M25.7 21.5c.1 0 .1.1.1.2h.1c.2-.2.3-.5.4-.7 0 0 .1 0 .1-.1s-.2-.2-.2-.3c-.1.2-.3 0-.4.1v.1h.1v.2c-.1-.1-.2-.1-.3-.1.1 0 0 0 0 .1-.2 0-.4 0-.5.1-.1 0-.1 0-.2-.1-.1.1-.1.2-.2.2l-.1-.1c.1-.1.2-.1.2-.2v-.3c.1-.1.1-.2.2-.2s.3.1.4 0l.1.1v.1c-.1.1-.2.1-.2.2s0 .1.1.1.1-.1.2-.1c0-.1.1 0 .1 0h.3c.1 0 .1-.3 0-.4v-.1-.1c0-.1.2-.1.2 0v.1s0 .1.1 0v-.2s.1.1.2.1h.2c.1 0 .1-.1 0-.2h-.1c-.1.1-.2.1-.2.1-.1 0-.1-.1-.2-.1s-.2.1-.2 0c-.1 0-.1-.1-.1-.2l.1-.1c.1 0 .2 0 .3-.1 0-.1.1-.2.1-.2h.1c.1 0 .2 0 .3-.1.1 0 .2-.1.3-.2.1 0 .1-.1.2-.1 0 0 0-.1.1-.1v-.5c0-.1.1-.1.1-.1h-.1s-.1-.1 0-.1c0 0 .2 0 .2-.1.1-.1 0-.3-.1-.3-.1-.1-.2 0-.3 0 0 0 0 .1-.1.1s-.2-.1-.1-.2v-.1h-.1l-.3.3v.1c0 .1 0 .2-.1.2h-.1c0 .1.2.1.1.2s-.2.1-.4.2c-.3.1-.6 0-.9 0h-.5c-.1 0-.1.1-.2.2v-.2c0-.1-.1 0-.1-.1-.2-.4-.7-.3-1.1-.3-.1 0-.1.1-.1.1-.1.1-.2 0-.3 0l-.1.1c-.1 0-.2-.1-.3 0-.1.1-.1.1-.2.1v.1h-.1c-.1 0-.3 0-.3.1s0 .3-.1.3-.3 0-.4.1c-.1 0-.1.1-.2.1-.2.4-.4.7-.4 1.2v.1c-.2.4-.3.6-.6 1.1-.1.2-.2.6 0 .7.1.1 0 .2-.2.2s-.4 0-.4-.2c0-.1-.2-.1-.3-.1h-.4c-.2 0-.2.3-.3.4-.1.1-.3.1-.3.2v.2s-.1 0-.1.1v.1c0 .2-.1.3 0 .5v.1c0 .2 0 .3-.1.5s-.3.2-.5.2H16.7h-.1c-.1 0-.1-.1-.2-.1-.1-.1-.1-.2-.1-.2-.1-.1-.3 0-.4.1.1 0 0 .1 0 .1-.1 0-.2.1-.3.2-.1.1-.2-.2-.2-.3 0-.1-.1-.1-.2-.1v.1h-.1c-.1.1.1.1.1.1v.1h-.1c0 .1-.1.1-.1.1-.1 0-.1.1-.1 0v-.2h-.1c0 .1 0 .1-.1.1v.1h.2c.1.1.1.2.1.3 0 .1 0 .2-.1.1s0-.2 0-.3h-.1c.1.2-.1.3.1.5.1.1-.2.2-.1.2 0 0 .1.1.2.1v-.1s.1-.1.1 0v.1H15v.4c0 .1.2 0 .2.1s-.1.1 0 .2c0 0 .1 0 .1.1v.1s.1 0 .1.1c.1 0 .1 0 .1-.1.1 0 .1-.1.1-.2 0 0 0-.1-.1 0V26c0-.1-.1-.1-.1-.2.1 0 .1 0 .2-.1 0 0 .1 0 .1.1v.1c.1 0 .1.1.1.1.1 0 .1.1.2.2h.3v-.1l.1.1c0 .1 0 .2.1.3h.1l.1.1h.1c.1 0 .1.1.1.1.1 0 .2 0 .2.1.1.1.1.2.2.4 0 .1.1.1.1.1s0 .1.1.1c.1.1.2.1.3.1 0 0 .1-.1.2-.1h.1c.1.2.1.4.3.4.1 0 .1.1.2.2h.2s0 .1.1.1c.1.1.2.1.2.2v.1c.1 0 .2-.1.2 0 .1.1.2.1.2.2h.1v-.1c0-.1.1 0 .2-.1.1 0 .1-.2.1-.2.1 0 .2.1.3.2h.1c.1.1.1.3.2.3.2 0 .2.1.4.2.1 0 .2.1.3.1h.1c.1 0 .1 0 .2-.1s.3-.1.4-.2l.1-.1c.2-.1.5.1.7 0 .1 0 .1 0 .2-.1s.2-.3.1-.4c-.1-.2-.2-.5-.3-.7l-.3-.3h-.1c-.1 0-.1-.1-.1-.2 0 0-.1 0-.1-.1v-.2-.1c-.1 0-.2-.1-.4-.1 0 0-.1 0-.1-.1v-.1c.1-.1.2-.1.3-.1V26v-.2s0-.1-.1-.1c0-.1.1-.2 0-.3-.1-.1-.2-.2-.2-.3 0 0-.1 0-.1-.1v-.5c0-.1-.1-.1 0-.2l.1-.1c.1 0 .1-.1.1-.2-.1-.1-.2 0-.2 0v-.1-.2l-.1-.1v-.2s0-.1-.1 0v-.2c0-.1-.1-.2-.2-.1 0 0-.1.1-.2 0V23s.1 0 .1-.1c.1-.1 0-.2 0-.2-.1-.1-.2-.2-.1-.3-.1 0-.3 0-.3-.2s0-.3-.1-.4v-.3s0-.1.1-.1c.2 0 .4 0 .4-.1.1-.1-.1-.3 0-.3.2-.1.4 0 .6-.2.1 0 .1-.1 0-.2 0-.1-.1-.2-.1-.2-.1-.1-.2 0-.3-.2V20c0-.1.1-.1.2-.2.2-.1.3 0 .5.1l.1.1v.1c0 .2.1.4 0 .6 0 .1-.1.1-.1.2h.1c0 .1.1.3 0 .4-.1.1-.1 0-.3 0-.1 0-.1 0-.1.1l.1.1c.4.1.5.1.9.2.1 0 .1.1.2.1H23.1c0 .1.1.1.1.1.1.1.1.3.2.3.1-.1.2 0 .2 0-.1.1 0 .2 0 .3.1.1.2.1.3.2.1.1.2.1.2 0s-.1-.2 0-.3c.1.2 0 .4.1.6.1.1.1.2.2.2s.1-.1.1-.2v-.1c0-.1 0-.1.1-.2 0-.1.1-.2.1-.3v-.1c0-.1.2-.2.3-.2V22c.1 0 0-.2.1-.2 0-.1.1-.1.1-.2 0 0 .1-.1 0-.1.5.1.5 0 .5 0" class="st1"/><path d="M21.5 21.3h-.1v.1l.1.1v.3c0 .1.1.2.2.1s.2-.3.1-.4c-.2 0-.1-.1-.3-.2" class="st1"/><path d="M21.3 22.2c.1 0 .1 0 0 0 .1.2.2.1.3.1v-.1c-.1-.1-.1-.1-.3 0 .1-.1 0-.1 0-.1v.1" class="st1"/><path d="M21.6 22.6c0-.2-.1-.2-.2-.1s0 .3.1.4c0 0 0 .1.1.1 0 .1.1 0 .2 0 0-.1 0-.1.1-.1-.1-.1-.2-.3-.3-.3" class="st1"/><path d="M21.3 21.8c0-.1-.1-.1 0 0-.1 0-.1 0-.1.1s0 .2.1.2c0 0 .1 0 .1-.1-.1-.1-.1-.1-.1-.2" class="st1"/><path d="M21.7 22.4l.1-.1h.1v-.1c-.1 0-.1.1-.2.1s0 .1 0 .1" class="st1"/><path d="M21.6 23.3c0 .1 0 .1.1.1h.1v-.1h-.2c0-.1 0 0 0 0" class="st1"/><path d="M21.8 24c0-.1.1-.1 0-.2h-.1c0 .1.1.2.1.2" class="st1"/><path d="M15.5 26.5v.1h.2c-.1 0-.1-.2-.2-.1" class="st1"/><path d="M16.1 27.2c-.1.1.1.2.2.2v-.2s-.1-.1-.2 0" class="st1"/><path d="M16.4 27.6c0 .2.1.3.2.3.1-.2 0-.3-.2-.3" class="st1"/><path d="M26.5 22.4c.2-.1.4-.1.6-.1.4 0 .4-.6.6-.9 0-.1 0-.3-.1-.4-.1-.2-.6 0-.7-.2-.1-.1.3.1.3-.1 0-.1 0-.1-.1-.2h-.2c-.2.2-.3.5-.4.8-.3.4-.7.7-.9 1.2 0 .1 0 .1.1.2.3.1.6-.2.8-.3" class="st1"/><path d="M28.3 21.4c-.1 0-.1 0-.2.1v.2h.1c0-.1 0-.1-.1-.1.2-.1.2-.2.2-.2" class="st1"/><path d="M27 22.9c.1.2.5.1.5 0s-.3-.2-.4-.2c-.2 0 .1.1-.1.2" class="st1"/><path d="M27.5 24.2c.1-.1.1-.2.1-.3l-.3.3h.2" class="st1"/><path d="M29.3 21.5v-.1h-.2c-.1 0-.1-.1-.1-.2s-.1-.2-.1-.3c-.1 0-.1.2-.1.2.2.2.3.5.5.4" class="st1"/><path d="M26.9 20.3c-.1-.1-.1 0 0 0-.1.1 0 .1 0 0" class="st1"/><path d="M15.1 24.1s0-.1-.1-.1h-.1v.1s.1.1.2 0" class="st1"/><path d="M15.8 24.1c.1 0 .2-.1.1-.2s-.3 0-.2.1c-.1.1 0 .2.1.1" class="st1"/><path d="M27.2 17.1c0-.1.1-.1.1-.2h-.1c-.1 0-.1.1 0 .2-.1-.1-.1-.1 0 0-.1 0 0 0 0 0" class="st1"/><path d="M27.5 17s.1-.1 0-.1h-.1s0 .1.1.1" class="st1"/><path d="M26.4 19.6c0 .1.2.3.3.2.1-.1 0-.2 0-.2-.1-.1-.2-.1-.3 0" class="st1"/><path d="M26.7 20.4v-.1h-.2-.1s0 .1.1.1c0-.1.1 0 .2 0" class="st1"/><path d="M26.4 20.6c-.1 0 0 .1 0 .2.1 0 .1 0 .2-.1 0-.1.1-.2 0-.2s-.2 0-.2.1" class="st1"/><path d="M26.2 20.3c0 .1-.1.2 0 .3 0 .1.1 0 .1 0 0-.1 0-.2.1-.2h-.1v-.1h-.1" class="st1"/><path d="M27.5 25.9z" class="st1"/><path d="M33.8 27.4c.1 0 0-.1 0 0" class="st1"/><path d="M28 23.5c0 .1 0 0 0 0l-.1-.1c0-.1-.1.1-.2 0 .1.1 0 .1-.1.2 0 .1.1.1.1.1 0 .1-.1.1 0 .2l-.1.1s-.1.1 0 .1c.1.1.2-.1.3-.1h.1c.1 0 .1-.1.2-.2H28s-.1 0 0-.3c0 .1 0 0 0 0" class="st1"/><path d="M28.6 25.4c0 .1.1.1 0 0 .1 0 .1-.1.1-.2h-.1v.2" class="st1"/><path d="M28.7 25.2c.1 0 0-.1 0-.1h-.1s0 .1.1.1" class="st1"/><path d="M29.3 25.5s0-.1 0 0c-.1 0-.1-.1-.2 0H29v.1c.2-.1.2-.1.3-.1" class="st1"/><path d="M30.3 25.4v-.1c-.1 0-.2.1-.3 0v.1h-.1c.2.1.3 0 .4 0" class="st1"/><path d="M30.7 25c0 .2.2.1.2 0 .1-.1 0-.1-.2 0l.1-.1c0 .1-.1.1-.1.1" class="st1"/><path d="M35.5 21.8c0 .1.1.1.2.1s.2 0 .3-.1c0-.2-.1-.3-.3-.3-.2.1-.2.2-.2.3" class="st1"/><path d="M35.5 26.9h-.1c-.1.5-.6 1.2 0 1.5.2.2.5-.1.6-.3 0-.3 0-1-.5-1.2" class="st1"/><path d="M34 24.7c-.1 0-.1.2 0 .2 0 0 .1 0 .1-.1v-.1H34" class="st1"/><path d="M34.4 29.8v.2s.2-.1 0-.2" class="st1"/><path d="M36.7 18.1h-.1v.2c-.2.4-.7.9-.4 1.4.1-.1.2-.2.3-.4.1-.3.3-.6.4-1 0 0-.1-.2-.2-.2" class="st1"/><path d="M35.8 19.9c0 .1 0 .1.1.1s.1-.1 0-.1c0-.1 0-.1-.1 0" class="st1"/><path d="M30.7 16.8c-.1-.2-.2 0-.3 0l-.1-.1h-.1c-.1 0 0 .2.1.2s.1-.1.1 0c.1.1 0 .3.2.2.1 0 .2-.1.3-.1.1 0 .1-.1.1-.2.1 0 .2-.1.3 0 0 0 0 .1.1.1 0 .1.1.1.2.1s.2 0 .3-.1c.1-.1.1-.2 0-.3h-.2c-.1 0-.1-.1-.2-.1-.4-.1-.6.2-.8.3" class="st1"/><path d="M31.6 17s-.1 0 0 0h-.1.1z" class="st1"/><path d="M29.7 17h.3c0-.2-.2-.1-.3-.1.1-.1.1 0 0 .1 0-.1 0-.1 0 0-.1-.1 0 0 0 0" class="st1"/><path d="M30.1 17.6c.1-.1.3-.2.4-.3v-.1c0-.1-.1-.1-.2-.2 0 .1-.1.1-.1.1-.1.1-.2.1-.2.2v.2c.1.3.1.2.1.1" class="st1"/><path d="M28.6 16.6v.1c.1.1.1 0 0-.1" class="st1"/><path d="M25 14.4c.1.1.3.1.4.1l.1-.1c-.1-.1-.2 0-.2-.1h-.1c-.1-.1-.2 0-.2.1-.1 0 0 0 0 0" class="st1"/><path d="M34.1 16c0 .1-.1 0-.2.1v.1c.1.1.2 0 .3 0 0 0 .1-.1.1 0v.1c-.1 0-.1.1-.1.1H34h-.1v.2c-.1.1-.4.2-.3.4.1.1.3.1.5.1 0-.2.1-.2.2-.3 0 0 0-.1-.1-.1v-.1c.1 0 .1-.1.1-.1v-.1c.1 0 .2-.1.2-.1 0-.1-.1-.2-.1-.3 0 0 0-.1.1-.1v-.1h-.1s-.1 0 0 .1c-.1 0-.2 0-.3.1 0-.2.1 0 0 0" class="st1"/><path d="M33.1 17c0 .1.1.1.2 0h-.2" class="st1"/><path d="M34.5 16.8c-.1.1.1.1.2.1 0-.1-.1-.1-.2-.1" class="st1"/><path d="M34.9 16.3c-.1 0-.1 0 0 0-.1 0-.1.1 0 0 0 .1 0 .1 0 0" class="st1"/><path d="M32.6 12.3c.1.1.2.1.2.2v.4l.1.1v.2c0 .1.1.3.1.4.1 0 .1.1.1.1 0 .1 0 .1.1.2 0 .1.1 0 .2.1s.2.3.3.4c0 0 .1 0 .1.1v.1c.2 0 .5.1.4.4.1-.1.2-.1.2-.2s.1-.3 0-.4c0-.1-.1-.1-.2-.2V14c0-.1-.1-.1-.1-.1 0-.1-.1-.3.1-.3v-.1H34v-.1c0-.1 0-.2-.1-.3-.1-.1-.2-.1-.3-.1-.1-.1-.1-.1-.2-.1h-.2c-.2-.2-.3-.4-.4-.6-.1-.1-.2-.1-.3 0 .1-.1.1-.1.1 0 0-.1 0-.1 0 0 0-.1 0 0 0 0" class="st1"/><path d="M31.7 12.6c-.1.1 0 .2 0 .2h.4c.1 0 .1-.1.1-.1.1-.1.2 0 .4-.1 0 .1 0 .1.1.1 0-.1 0-.2-.1-.2-.1-.1-.1-.2-.2-.3h-.1c0 .2-.1.1-.3.2v0h-.2c0 .1-.1.2-.1.2" class="st1"/><path d="M29.4 8.7c-.1-.2-.3-.4-.2-.7.3.1.6.1.9 0 .2-.1.5 0 .7-.1v-.2c-.3.1-.5-.2-.7-.1-.3.2-.6.2-.9.3-.2.1-.9 0-.9.4.3 0 .7 0 .9.3 0 .1.1.1.2.1" class="st1"/><path d="M30.4 10.2c.1.2.3.2.4.2 0-.1 0-.1-.1-.2h-.3" class="st1"/><path d="M30.1 10.7c-.1 0 0 .1.1.2 0-.1.1-.3-.1-.2" class="st1"/><path d="M29.9 10.4c.1 0 .1 0 0 0 .1-.1 0-.2-.1-.2v.1l.1.1" class="st1"/><path d="M30.8 11.5s0 .1 0 0c.1 0 .1 0 0 0 .1-.1.1-.2.1-.2h-.1c-.1.1 0 .2 0 .2" class="st1"/><path d="M31.1 11.5v.1c.1.1.1 0 0-.1.1.1.1.1 0 0 .1 0 0 .1 0 0" class="st1"/><path d="M31 11.8s.1 0 0 0c.1-.1.1-.1 0 0l.1-.1c0-.1-.1-.1-.2 0-.1 0 .1 0 .1.1" class="st1"/><path d="M31.1 11.8c0 .1.1.2.2.1 0 0 .1-.1 0-.1h-.2z" class="st1"/><path d="M31.6 12c0-.1-.1-.2-.1-.2s-.1.1 0 .1c0 .1 0 .1.1.1" class="st1"/><path d="M31.7 12.3h.1v-.1-.1h-.1-.1v.1l.1.1" class="st1"/><path d="M31.5 12.5c.1-.1.1-.1 0-.2h-.1s0 .1-.1.1c.1.1.1.1.2.1" class="st1"/><path d="M31.2 7.5c-.1-.1-.1-.1-.2-.1.1.1.1.2.2.1" class="st1"/><path d="M34.6 10c.1.1.2 0 .2.1.1.1.1.2.2.2s.1 0 .1-.1c0-.2 0-.4-.2-.4h-.5c-.1 0-.1.1-.1.2.1-.1.2-.1.3 0" class="st1"/><path d="M38.7 15.2c-.1-.1-.1-.3-.2-.4-.1-.1-.2-.1-.3-.2v-.2l-.1-.1c-.1-.2-.1-.3-.3-.3 0-.2-.1-.2-.3-.3v-.1c0-.1-.1-.1-.1-.1h-.1c-.1-.1-.2-.2-.2-.3 0-.1-.2-.2-.3-.3l-.1-.1c-.1 0-.2 0-.2-.1 0-.2-.2-.3-.3-.4-.2-.1 0-.4-.1-.7 0-.1-.1-.1-.2-.1 0 0-.1 0-.1-.1-.1-.1 0-.3-.1-.4-.1-.2-.3-.3-.4-.5-.1-.1-.2-.1-.3-.1h-.1l-.1-.1c-.1-.1-.2-.2-.3-.2-.2-.1-.4 0-.6-.1-.2 0-.4 0-.5.2-.2.1-.3.2-.5.2-.1 0 0 .1 0 .2s-.2.2-.1.2h.2c.1 0 .1.1.1.1.1.1.2.2.2.3 0 0-.1.1 0 .2s.1.2.1.3c0 .1.1 0 .1 0 .2.1.2.3.1.4v.3c.1.2.1.4.2.5l.1-.1c.1 0 .1-.1.2-.1.2-.2.4.2.5.3.1.2 0 .4.1.6.1.2.2.3.3.4 0 0 0 .1.1.2l.1.1s0-.1.1-.1h.1c.2.2.2.6.5.6 0 0 0 .1.1.1s.1-.1.2 0c0 .1.1.2.1.2h.3c.1 0 .1.1.2.2l.1.1c.2.2.3.5.5.7.1.1.2.2.3.1v-.1c.1 0 .2-.1.2-.2l.3-.3c.1-.1.2-.1.3-.2.3 0 .2-.2.2-.2" class="st1"/><path d="M34.7 14.7h.1-.1z" class="st1"/><path d="M34.5 15.3c0 .1.1.1.2.1.1.1.1.2.2.2.1.1.1-.1.1-.2h.1c.1-.1 0-.3-.1-.4-.1-.1-.1-.2-.3-.2-.1 0-.1 0-.2.1s0 .2 0 .3v.1" class="st1"/><path d="M35.2 15.7c-.1.2 0 .4 0 .6 0 .1-.2.1-.2.2 0 0-.1.1 0 .2 0 .1.2.1.3.2.2.1.5.3.6.6.1.1.1.2.1.3.1.1.2.1.2.2s.1.1.1 0c.1-.1.1-.3 0-.4-.1-.1-.1-.1-.1-.2 0-.3-.1-.5-.2-.8l-.3-.3v-.1c0-.1.1-.1.1-.2s-.1-.2-.2-.3h-.1.1c-.2-.1-.3-.1-.4 0" class="st1"/><path d="M36.7 17.1v-.2c0-.2-.2-.2-.3-.2h-.1v.2c.2.3.2.6.3 1 0 .1.3 0 .3-.1v-.2c0-.1-.1-.1-.1-.2s-.1-.2-.1-.3" class="st1"/><path d="M36.3 16.2c-.1.1 0 .2 0 .3.1 0 .1 0 .1-.1-.1 0 0-.1-.1-.2" class="st1"/><path d="M36.3 16c0-.1 0-.1-.1-.1 0 .1-.1.1-.2.1-.1.1 0 .1.1.2.2 0 .3-.1.2-.2" class="st1"/><path d="M35.8 15.5c.1.1 0 .2.1.2s.2.1.3 0c.1 0 0-.1-.1-.1v-.1H36c-.1-.1.1-.1 0-.2v-.1h-.1v.1c-.1.1-.2.2-.1.2" class="st1"/><path d="M35.7 14.9c-.1 0-.2 0-.2-.1h-.1s-.1.1 0 .1.1.1.1.1c0 .1.1 0 .1.1s.1.1.1 0V15s0-.1 0 0c0 0 .1-.1 0-.1" class="st1"/><path d="M28.6 19.5c.1-.1.1-.1 0 0 .1-.1 0-.2 0-.2s-.1 0-.1.1c.1 0 .1 0 .1.1" class="st1"/><path d="M36.4 18.2c-.1 0-.3 0-.4.1-.2.1-.3.4-.4.6-.1.1-.2.2-.4.2 0 0-.1 0-.1-.1v-.2l.1-.1c.1-.1 0-.2 0-.3-.1-.2-.3-.4-.5-.3-.2 0-.3.3-.5.5-.1-.1-.2-.2-.2-.3v-.1c.1 0 .2.2.2.1.1-.1 0-.2-.1-.2s-.1-.1-.2-.1-.1-.1-.2-.2c0-.1 0-.3-.1-.3s-.2 0-.3-.1h-.2v-.1c.1 0 .3 0 .2-.2 0-.1-.1-.1-.2-.1H33V17.3c-.1.1-.2.1-.3.1h-.1c-.1 0-.2-.1-.3-.1-.1.1-.1.2-.2.2s-.1 0-.2.1c-.1 0-.1.2 0 .3v.1c-.1 0-.1-.1-.1-.1 0-.1-.1-.2-.1-.3 0-.1.1-.2.2-.3v-.2c-.1-.1-.1-.1-.2-.1-.2.1-.3.4-.5.3-.1 0-.2-.2-.3-.2-.1 0-.1-.1-.2 0s-.3.2-.5.3c-.1.1-.3.2-.3.4-.1.2-.4.3-.6.1-.1-.1-.2-.2-.3-.2-.1 0-.2.2-.3.2-.1 0-.1 0-.2-.1v-.1l.6-.3c.1 0 .1-.1.1-.2v-.1-.1c-.3 0-.5.2-.6.4 0 0 0 .1-.1.1-.2 0-.3.1-.5 0l-.1-.2c-.1.1-.1.2-.2.2l-.1.1c-.1.1.1.3 0 .4 0 .1-.2.1-.3.1v.2c0 .1.1 0 .1.1.1.1.1.3.2.3.2.1.3 0 .5.1.1 0 .2.1.3.2 0 .1.1.1.1.2 0 0 0 .1.1.1h.2c.1 0 0 .1.1.2 0 .1 0 .2.1.4 0 0 0 .2-.1.2 0 0-.1 0-.1.1v.3h.1c.1.1.1.2.2.3l.1.1c-.1 0-.1.1-.1.1s.1.1.2 0c.1 0 .1-.1.2-.1 0 0 .1 0 .1-.1 0 0 .1.1.1.2-.1.1-.3 0-.4.1-.1 0-.1 0-.2.1 0 0 0 .1.1.1.2.1.1.4-.1.6v.2H29c-.2 0-.5-.1-.7 0-.1 0-.1.1-.1.2-.1 0-.1.1-.1.1v.2c-.2.2-.2.5-.3.7 0 .1.1.1.1.1.1 0 .1-.1.2-.1s.1.2.1.2c0 .1.2.1.2 0s0-.2.1-.3c0-.1-.1-.2-.1-.3 0-.1 0-.2.1-.2 0 0 .1 0 .1.1v.4s.1.1 0 .2c0 0 0 .1-.1.1v.2c-.1.1-.1.1-.1.2-.2 0-.4-.1-.3-.3-.1 0-.1 0-.2.1v.3c-.1.1-.1.2-.2.3v.1c-.1.1-.2.2-.3.2-.1.1-.2 0-.2.1s.1.2.1.3c0 .1 0 .1-.1.2h-.4c0 .1 0 .2-.1.3-.1.1 0 .2.1.2.1.1.1.2.2.2s.1.1.2.1.2-.1.2-.2.1 0 .2 0h.1c.1-.1 0-.2 0-.2l.4-.4c.1 0 .1-.1.2-.1s.1.1.2.1.1.1.2.1h.1c.1 0 .2.2.3.2 0-.1 0-.2-.1-.3-.1-.1-.2-.2-.3-.2v-.1c.1.1.1.1.2.1.1.1.1.2.2.3.1 0 .1.1.2.1s.2 0 .3-.1c0-.1 0-.1-.1-.1-.1-.1 0-.1.1-.2s0-.2 0-.3v-.1c.1-.1 0-.2 0-.4 0 .1.1.1.2.1s.2-.1.2-.2c.1-.1.3 0 .3.1s0 .2-.1.2c-.2 0-.4.1-.5.2l-.1.1c-.1.1-.1.1-.1.2l-.1.1c.1 0 .1.1.1.1.1 0 .2 0 .3-.1v-.2c.1 0 .1-.1.2-.1.2 0 .3.2.2.3h-.1c-.1.1-.2.3-.3.3-.2.1-.5.1-.7.2-.1.1-.1.2-.2.2s-.2.1-.3 0c0 .1-.2 0-.3 0 0 0 0-.1-.1-.2h-.1v-.1h-.8c-.1 0-.1.1-.1.1l-.1.1c-.1.1-.2.1-.3.1-.1 0-.2 0-.3.1-.2 0-.3.2-.4.3-.1.1-.2.1-.3.1v.1c-.2 0-.3.3-.4.5v.2c-.1.1-.1.3-.3.4v.1c.1.2.3.3.5.5 0 .1.1.1.1.1.1.1.1.2.2.4s.3.2.5.2c.1 0 .2.1.2.1.2 0 .5.1.7 0 .3.1.7 0 1 .1.1 0 .1.1.1.2.1.1.2.3.3.4.1.1.3.1.4.1 0 0 0 .1.1.2 0 .1 0 .1.1.2s.1.1.1.2-.1.2-.1.4v.2c.2.2.4.4.6.5 0 0 .1 0 0 .1.1 0 .1.1.2.2 0 .1 0 .1.1.2l.3.3c.1.1.3.1.4.1 0 0 .1 0 .1.1.1 0 .3.1.4 0 .1-.1.1-.2.2-.2.1-.1.3-.1.4-.1 0 0 .1 0 .1-.1s.1-.1.1-.2c.1 0 .2-.1.3-.1.2-.1.3-.3.5-.4.2-.1.4-.1.5-.2.1-.2 0-.4 0-.6 0-.1.1-.2.1-.3v-.5c0-.1-.1-.2-.1-.3 0-.1.1-.1.2-.1.1-.1.1-.3.2-.4 0 0 .1 0 .1-.1.1 0 0-.1 0-.2-.1 0-.1-.1-.1-.1-.1-.2-.3-.4-.5-.5-.1 0-.1-.1-.1-.1v-.1c-.1 0 0-.1-.1-.1h.1c.1-.1.1-.3.2-.4 0 0 .1 0 .1-.1v-.3c-.1-.1 0-.3 0-.4 0-.3 0-.5-.1-.8 0-.1-.1-.1-.2-.1 0 0 0 .1-.1.1 0 0 0 .1-.1.2 0 .1-.2.1-.2.2s0 .1-.1.2l-.1.1c.4-.3.3-.3.3-.2h-.3c-.6-.2-1.1-.4-1.6-.5h.3c.1 0 0-.1 0-.1.1 0 .2.1.3.2.2.1.5.1.7.2.2 0 .3.2.5.2s.3-.1.4-.1v-.1c.1-.1.2-.2.2-.3v-.3l.1-.1v-.4c.1 0 .1-.1.1-.1v-.1-.2c0-.2 0-.4-.1-.5 0-.1-.1-.1-.2-.1 0 0 0 .1-.1.1s-.2 0-.2.1c-.1 0-.1.1-.1.1-.1.1-.2.2-.4.2-.1 0-.2 0-.2-.1-.1-.2.2-.2.4-.2l.1-.1c0-.1.1-.2.2-.2h.2c.1 0 .1-.1.2-.1 0 0 0-.1.1-.2 0-.1.1-.1.2-.2.1-.2.1-.4.2-.6.1-.1 0 .1.1.2s.2.1.3 0c.1-.1 0-.2.1-.2h.1c.1 0 .1.1.2.1 0 0 .1-.1.2-.1h.3c.2-.1.6 0 .6-.2 0-.3-.3-.6-.6-.7-.2-.1-.1-.4-.3-.6-.1 0 0-.1-.1-.2l-.1-.1-.1-.1v-.5c0-.1.1-.1.2-.1.1-.1.2-.1.2-.2v-.4l.1-.1c.2 0 .5.1.7-.1.1 0 .1-.1.1-.2.2-.2.4-.4.4-.8-.1.1 0 .1 0-.1.1.1.1 0 0 0m-4.5 5.4s0 .1 0 0c-.1.1-.1.1-.2 0 0-.1-.1-.1-.1-.2-.1 0-.1 0-.1.1h-.2c0-.1-.1-.1-.1-.2-.1-.1 0-.2.1-.2s.1 0 .1.1v.1c.1.1.1 0 .2 0h.3c0 .1.1.2 0 .3" class="st1"/><path d="M22.6 41c1.3-1.9 5.2-3.9 9-3.9s8 2.2 9.6 1c0 0-1.7 1.4-5.1 1.4-3.4 0-4.7-1.7-7-1.7-2.4 0-4.8 1.9-5.9 3.5l-.6-.3z" class="st1"/><path d="M34.7 36.8s1.1-.7 1.7-1.9c.6-1.2 2.1-3.2 3.7-4.4 0 0-1.7 5.5-3.5 5.7 0 0-.3.2.2.1s2.8-.9 3.6-1.1c.8-.1 2.8-.6 3.3-1.1.5-.4.8-.4.8-.4s-2.2 3.7-6.2 3.7c0 0-2-.1-3.6-.6" class="st1"/><path d="M39.4 34.9s.4-.6.5-1.7c.1-1.1.8-3.6 2.7-6.3 0 0 .3 4.3-1.9 7 0 0-.1.4.1.1.3-.3 1.6-1.9 4.6-3.9 0 0 1.5-1.3 1.6-1.7 0-.1-1.2 6.1-7.6 6.5" class="st1"/><path d="M43.1 30.8s.2-.7.2-1.3c0-.6-.3-2.6-.3-3.5 0-.9.1-2.6.8-3.7 0 0 0 1 .2 1.4.2.4.5 2.2.5 2.5 0 .2-.1 1.7-.4 2.5 0 0 .3-.2.6-.8.3-.6 1.1-1.7 2.2-2.8C48 24 48.3 23 48.3 23s.3 2-1.2 4.1c-1.5 2.1-2.1 1.8-2.9 2.6 0 0-1 1.1-1.1 1.1" class="st1"/><path d="M45.4 25.9s0-1.2-.3-1.6c-.2-.4-1.6-2.8-1.3-5.9 0 0 .2-.2.6 1 .4 1.2 1 1.6 1.2 2.8.2 1.2.2 1.7.2 1.7s.1.2.1 0c0-.1.1-1.8.8-3.2.7-1.5 1.6-2.9 1.5-3.9 0 0 .4 0 .3 1.6.1 1.6-.3 4.4-3.1 7.5" class="st1"/><path d="M46.2 21.1s-.5-1.1-.8-1.5c-.3-.4-2.7-3.7-2.9-5.3 0 0 .2-.1.4.3s1.3 1.5 1.5 1.7c.2.2 1.4 1.4 1.5 2.8 0 0 .1.1-.1-2.1s.7-3.7-.1-5.3c0 0 1.1.2 1.7 4.8 0 0 0 1.6-.9 3.6.1-.1-.2 1-.3 1" class="st1"/><path d="M45.3 16s-.9-.9-1.6-1.3c-.7-.4-2.9-2.6-3.3-4.3 0 0 .1-.2.8.7.5.7 1.1.4 2.7 2.4 0 0 .2.5.3.4.1 0-.1-.5-.1-.5s-.1-1.2-.1-1.6c0-.4-.7-2.8-.9-3.1 0 0 2.2 1.2 2.5 4.7-.1 0-.2 2.5-.3 2.6" class="st1"/><path d="M43.5 12.3s.1-3-3.8-4.6c0 0 1.4 2.8 2.4 3.5 1 .7 1.4 1.1 1.4 1.1" class="st1"/><path d="M33.3 41c-1.3-1.9-5.2-3.9-9-3.9s-8 2.2-9.6 1c0 0 1.7 1.4 5.1 1.4 3.4 0 4.7-1.7 7-1.7s4.8 1.9 5.9 3.5l.6-.3z" class="st1"/><path d="M21.2 36.8s-1.1-.7-1.7-1.9c-.6-1.2-2.1-3.2-3.7-4.4 0 0 1.7 5.5 3.5 5.7 0 0 .3.2-.2.1s-2.8-.9-3.6-1.1c-.8-.1-2.8-.6-3.3-1.1-.4-.4-.8-.4-.8-.4s2.2 3.7 6.2 3.7c0 0 2-.1 3.6-.6" class="st1"/><path d="M16.5 34.9s-.4-.6-.5-1.7c-.1-1.1-.8-3.6-2.7-6.3 0 0-.3 4.3 1.9 7 0 0 .1.4-.1.1-.3-.3-1.6-1.9-4.6-3.9 0 0-1.5-1.3-1.6-1.7 0-.1 1.2 6.1 7.6 6.5" class="st1"/><path d="M12.8 30.8s-.2-.7-.2-1.3c0-.6.3-2.6.3-3.5 0-.9-.1-2.6-.8-3.7 0 0 0 1-.2 1.4-.2.4-.5 2.2-.5 2.5 0 .2.1 1.7.4 2.5 0 0-.3-.2-.6-.8-.3-.6-1.1-1.7-2.2-2.8C7.9 24 7.6 23 7.6 23s-.3 2 1.2 4.1c1.5 2.1 2.1 1.8 2.9 2.6.1 0 1 1.1 1.1 1.1" class="st1"/><path d="M10.5 25.9s.1-1.2.3-1.6c.2-.4 1.6-2.8 1.3-5.9 0 0-.2-.2-.6 1-.4 1.2-1 1.6-1.2 2.8-.3 1.2-.3 1.7-.3 1.7s-.1.2-.1 0c0-.1-.1-1.8-.8-3.2-.7-1.5-1.6-2.9-1.5-3.9 0 0-.4 0-.3 1.6 0 1.6.4 4.4 3.2 7.5" class="st1"/><path d="M9.7 21.1s.5-1.1.8-1.5c.3-.4 2.7-3.7 2.9-5.3 0 0-.2-.1-.4.3s-1.3 1.5-1.5 1.7c-.2.2-1.4 1.4-1.5 2.8 0 0-.1.1.1-2.1s-.7-3.7.1-5.3c0 0-1.1.2-1.7 4.8 0 0 0 1.6.9 3.6-.1-.1.2 1 .3 1" class="st1"/><path d="M10.6 16s.9-.9 1.6-1.3c.7-.4 2.9-2.6 3.3-4.3 0 0-.1-.2-.8.7-.5.7-1.1.4-2.7 2.4 0 0-.2.5-.3.4-.1 0 .1-.5.1-.5s.3-1.3.3-1.7c0-.4.7-2.8.9-3.1 0 0-2.2 1.2-2.5 4.7-.1.1 0 2.6.1 2.7" class="st1"/><path d="M12.4 12.3s-.1-3 3.8-4.6c0 0-1.4 2.8-2.4 3.5-1 .7-1.4 1.1-1.4 1.1" class="st1"/></svg>
