<svg style="position: absolute; width: 0; height: 0; overflow: hidden;" version="1.1" xmlns="http://www.w3.org/2000/svg" xmlns:xlink="http://www.w3.org/1999/xlink">
<defs>
<symbol id="icon-emergency" viewBox="0 0 32 32">
<title>emergency</title>
<path fill="#e84133" style="fill: var(--color1, #e84133)" d="M11.36 27.911h-4.071c-0.124 0-0.231-0.116-0.231-0.24v-23.351c0-0.124 0.107-0.231 0.231-0.231h4.071c0.133 0 0.24 0.107 0.24 0.231v23.351c0 0.124-0.107 0.231-0.24 0.231zM7.52 27.44h3.609v-22.88h-3.609v22.88z"></path>
<path fill="#e84133" style="fill: var(--color1, #e84133)" d="M18.88 28h-4.089c-0.116 0-0.222-0.116-0.222-0.24v-17.84c0-0.124 0.089-0.231 0.222-0.231h4.089c0.116 0 0.222 0.107 0.222 0.231v17.84c0 0.124-0.107 0.231-0.231 0.231zM15.040 27.52h3.609v-17.369h-3.609v17.369z"></path>
<path fill="#e84133" style="fill: var(--color1, #e84133)" d="M26.4 28.116h-4.089c-0.116 0-0.222-0.107-0.222-0.231v-14.311c0-0.124 0.107-0.231 0.231-0.231h4.089c0.124 0 0.231 0.116 0.231 0.24v14.311c0 0.124-0.107 0.231-0.24 0.231zM22.551 27.644h3.609v-13.84h-3.609v13.84z"></path>
</symbol>
<symbol id="icon-data" viewBox="0 0 32 32">
<title>data</title>
<path fill="#e84133" style="fill: var(--color1, #e84133)" d="M11.404 28.116c-0.151 0-0.267-0.124-0.267-0.267v-18.578c0-0.133 0.116-0.267 0.267-0.267 0.142 0 0.267 0.133 0.267 0.267v18.578c0 0.142-0.124 0.267-0.267 0.267z"></path>
<path fill="#fff" style="fill: var(--color2, #fff)" d="M13.6 8.773c0 1.218-0.978 2.196-2.196 2.196s-2.204-0.978-2.204-2.196c0-1.209 0.978-2.196 2.204-2.196 1.209 0 2.196 0.978 2.196 2.196z"></path>
<path fill="#e84133" style="fill: var(--color1, #e84133)" d="M11.404 11.244c-1.36 0-2.471-1.111-2.471-2.471s1.111-2.462 2.471-2.462c1.36 0 2.462 1.102 2.462 2.462s-1.102 2.471-2.462 2.471zM11.404 6.853c-1.067 0-1.929 0.871-1.929 1.929 0 1.067 0.862 1.929 1.929 1.929s1.929-0.871 1.929-1.938-0.889-1.929-1.938-1.929z"></path>
<path fill="#e84133" style="fill: var(--color1, #e84133)" d="M6.844 11.236c-0.107 0-0.222-0.089-0.249-0.196-0.373-1.484-0.373-3.040 0-4.533 0.036-0.133 0.178-0.222 0.329-0.178 0.133 0.027 0.222 0.178 0.178 0.32-0.356 1.396-0.356 2.862 0 4.249 0.044 0.151-0.044 0.293-0.178 0.329h-0.089z"></path>
<path fill="#e84133" style="fill: var(--color1, #e84133)" d="M4.356 12.267c-0.116 0-0.231-0.089-0.267-0.213-0.533-2.133-0.533-4.409 0-6.551 0.044-0.16 0.178-0.24 0.338-0.204 0.142 0.036 0.231 0.178 0.196 0.329-0.533 2.044-0.533 4.231 0 6.284 0.036 0.151-0.053 0.302-0.196 0.338h-0.071z"></path>
<path fill="#e84133" style="fill: var(--color1, #e84133)" d="M1.867 13.333c-0.124 0-0.24-0.089-0.267-0.204-0.729-2.844-0.729-5.867 0-8.711 0.036-0.133 0.178-0.222 0.329-0.178 0.142 0.027 0.231 0.178 0.196 0.32-0.711 2.756-0.711 5.671 0 8.427 0.027 0.16-0.062 0.302-0.204 0.338h-0.053z"></path>
<path fill="#e84133" style="fill: var(--color1, #e84133)" d="M15.973 11.307h-0.062c-0.142-0.044-0.231-0.196-0.196-0.338 0.382-1.476 0.382-2.907 0-4.382-0.036-0.133 0.053-0.284 0.196-0.32s0.284 0.053 0.329 0.196c0.4 1.564 0.4 3.084 0 4.649-0.036 0.116-0.142 0.196-0.267 0.196z"></path>
<path fill="#e84133" style="fill: var(--color1, #e84133)" d="M18.471 12.356h-0.071c-0.142-0.044-0.231-0.196-0.178-0.338 0.551-2.178 0.551-4.302 0-6.489-0.053-0.133 0.036-0.284 0.178-0.32s0.293 0.053 0.329 0.196c0.587 2.267 0.587 4.471 0 6.756-0.027 0.116-0.142 0.196-0.267 0.196z"></path>
<path fill="#e84133" style="fill: var(--color1, #e84133)" d="M20.96 13.458h-0.062c-0.133-0.044-0.222-0.178-0.178-0.338 0.747-2.933 0.747-5.778 0-8.693-0.044-0.142 0.044-0.293 0.178-0.329 0.151-0.027 0.302 0.062 0.338 0.204 0.773 3.022 0.773 5.956 0 8.978-0.036 0.107-0.142 0.178-0.267 0.178z"></path>
<path fill="#e84133" style="fill: var(--color1, #e84133)" d="M27.342 28.116h-9.938c-1.636 0-2.969-1.333-2.969-2.969v-1.556c0-1.636 1.333-2.969 2.969-2.969h9.938c1.636 0 2.969 1.333 2.969 2.978v1.547c0 1.627-1.333 2.96-2.969 2.96zM17.404 21.182c-1.333 0-2.436 1.067-2.436 2.418v1.547c0 1.333 1.093 2.418 2.436 2.418h9.938c1.333 0 2.427-1.084 2.427-2.427v-1.556c0-1.333-1.093-2.427-2.436-2.427h-9.929z"></path>
<path fill="#e84133" style="fill: var(--color1, #e84133)" d="M18.596 23.884h-1.813c-0.151 0-0.267-0.124-0.267-0.267 0-0.151 0.116-0.267 0.267-0.267h1.813c0.151 0 0.267 0.116 0.267 0.267 0 0.142-0.116 0.267-0.267 0.267z"></path>
<path fill="#e84133" style="fill: var(--color1, #e84133)" d="M21.716 23.884h-1.804c-0.16 0-0.267-0.124-0.267-0.267 0-0.151 0.107-0.267 0.267-0.267h1.804c0.151 0 0.267 0.116 0.267 0.267 0 0.142-0.116 0.267-0.267 0.267z"></path>
<path fill="#e84133" style="fill: var(--color1, #e84133)" d="M24.844 23.884h-1.822c-0.142 0-0.267-0.124-0.267-0.267 0-0.151 0.124-0.267 0.267-0.267h1.822c0.142 0 0.267 0.116 0.267 0.267 0 0.142-0.124 0.267-0.267 0.267z"></path>
<path fill="#e84133" style="fill: var(--color1, #e84133)" d="M27.964 23.884h-1.813c-0.151 0-0.267-0.124-0.267-0.267 0-0.151 0.116-0.267 0.267-0.267h1.813c0.151 0 0.267 0.116 0.267 0.267 0 0.142-0.116 0.267-0.267 0.267z"></path>
<path fill="#e84133" style="fill: var(--color1, #e84133)" d="M25.6 28.116c-0.142 0-0.267-0.124-0.267-0.267v-1.538c0-0.16 0.124-0.284 0.267-0.284 0.16 0 0.267 0.124 0.267 0.267v1.556c0 0.142-0.107 0.267-0.267 0.267z"></path>
<path fill="#e84133" style="fill: var(--color1, #e84133)" d="M24.578 28.116c-0.151 0-0.267-0.124-0.267-0.267v-1.538c0-0.16 0.116-0.284 0.267-0.284s0.267 0.124 0.267 0.267v1.556c0 0.142-0.116 0.267-0.267 0.267z"></path>
<path fill="#e84133" style="fill: var(--color1, #e84133)" d="M27.058 21.173h-1.902c-0.151 0-0.267-0.124-0.267-0.267v-1.44c0-0.142 0.116-0.267 0.267-0.267h1.902c0.142 0 0.267 0.124 0.267 0.267v1.422c0 0.16-0.116 0.284-0.267 0.284zM25.422 20.64h1.36v-0.889h-1.36v0.889z"></path>
<path fill="#e84133" style="fill: var(--color1, #e84133)" d="M26.107 19.733c-0.151 0-0.267-0.116-0.267-0.267v-3.849c0-0.151 0.116-0.267 0.267-0.267 0.142 0 0.267 0.116 0.267 0.267v3.849c0 0.151-0.124 0.267-0.267 0.267z"></path>
</symbol>
<symbol id="icon-standards" viewBox="0 0 32 32">
<title>standards</title>
<path fill="#e84133" style="fill: var(--color1, #e84133)" d="M23.973 28.178h-15.529c-0.738 0-1.333-0.596-1.333-1.333v-21.093c0-0.738 0.596-1.333 1.333-1.333h12.204c0.062 0 0.116 0.018 0.16 0.062l4.444 4.444c0.044 0.036 0.071 0.089 0.071 0.16v17.76c0 0.738-0.604 1.333-1.333 1.333zM8.444 4.889c-0.48 0-0.871 0.391-0.871 0.871v21.067c0 0.498 0.391 0.889 0.871 0.889h15.529c0.489 0 0.889-0.391 0.889-0.889v-17.627l-4.329-4.311h-12.089z"></path>
<path fill="#e84133" style="fill: var(--color1, #e84133)" d="M25.084 9.333h-3.324c-0.747 0-1.333-0.622-1.333-1.351v-3.324c0-0.089 0.044-0.178 0.133-0.222s0.178-0.027 0.249 0.044l4.444 4.444c0.071 0.062 0.089 0.16 0.053 0.249s-0.116 0.142-0.213 0.142zM20.889 5.209v2.756c0 0.489 0.382 0.889 0.871 0.889h2.756l-3.644-3.644z"></path>
<path fill="#e84133" style="fill: var(--color1, #e84133)" d="M22.862 20.418h-13.307c-0.133 0-0.231-0.107-0.231-0.231s0.089-0.231 0.222-0.231h13.307c0.133 0 0.24 0.107 0.24 0.24s-0.116 0.24-0.249 0.24z"></path>
<path fill="#e84133" style="fill: var(--color1, #e84133)" d="M22.862 24.853h-13.307c-0.133 0-0.231-0.107-0.231-0.231 0-0.133 0.089-0.231 0.222-0.231h13.307c0.133 0 0.24 0.089 0.24 0.231 0 0.124-0.116 0.231-0.249 0.231z"></path>
<path fill="#e84133" style="fill: var(--color1, #e84133)" d="M22.862 22.64h-13.307c-0.133 0-0.231-0.107-0.231-0.24 0-0.124 0.089-0.231 0.222-0.231h13.307c0.133 0 0.24 0.107 0.24 0.231 0 0.133-0.116 0.24-0.249 0.24z"></path>
<path fill="#e84133" style="fill: var(--color1, #e84133)" d="M22.862 18.196h-13.307c-0.133 0-0.231-0.089-0.231-0.231 0-0.116 0.089-0.222 0.222-0.222h13.307c0.133 0 0.24 0.107 0.24 0.231 0 0.142-0.116 0.24-0.249 0.24z"></path>
<path fill="#e84133" style="fill: var(--color1, #e84133)" d="M16.213 13.849c-0.311 0-0.596-0.142-0.8-0.382l-1.556-1.973c-0.356-0.462-0.418-1.067-0.151-1.582 0.062-0.116 0.142-0.231 0.231-0.32l0.053-0.089c0.204-0.178 0.444-0.293 0.711-0.356 0.533-0.089 1.12 0.107 1.511 0.507 0.338-0.4 0.933-0.587 1.467-0.498 0.507 0.107 0.907 0.444 1.084 0.916 0.178 0.48 0.107 1.013-0.213 1.422l-1.564 1.973c-0.178 0.24-0.48 0.382-0.782 0.382zM15.022 9.6c-0.089 0-0.151 0.018-0.222 0.027-0.178 0.036-0.338 0.116-0.471 0.24l-0.044 0.044c-0.062 0.062-0.116 0.133-0.16 0.222-0.178 0.356-0.151 0.756 0.089 1.067l1.564 1.982c0.204 0.267 0.64 0.267 0.844 0l1.573-1.982c0.213-0.267 0.267-0.622 0.142-0.96-0.116-0.32-0.391-0.551-0.711-0.622-0.382-0.053-0.8 0.071-1.084 0.356-0.089 0.107-0.196 0.16-0.32 0.16-0.133 0-0.249-0.053-0.338-0.151-0.222-0.24-0.533-0.373-0.862-0.373z"></path>
</symbol>
<symbol id="icon-digital" viewBox="0 0 32 32">
<title>digital</title>
<path fill="#fff" style="fill: var(--color2, #fff)" d="M19.049 30.489l-11.964-2.089c-1.156-0.204-1.92-1.298-1.716-2.453l4.124-23.396c0.196-1.164 1.298-1.929 2.453-1.724l11.964 2.107c1.156 0.204 1.92 1.298 1.716 2.453l-4.116 23.396c-0.213 1.156-1.307 1.92-2.462 1.716z"></path>
<path fill="#e84133" style="fill: var(--color1, #e84133)" d="M19.689 31.076c-0.133 0-0.267 0-0.409-0.036l-11.991-2.107c-1.298-0.231-2.169-1.476-1.938-2.773l4.142-23.404c0.116-0.622 0.462-1.156 0.978-1.529 0.533-0.373 1.156-0.507 1.796-0.4l11.964 2.107c1.298 0.231 2.169 1.476 1.938 2.773l-4.124 23.396c-0.204 1.156-1.218 1.973-2.356 1.973zM19.369 30.507c0.996 0.178 1.956-0.498 2.133-1.511l4.124-23.378c0.178-1.013-0.498-1.973-1.511-2.133l-11.938-2.151c-0.498-0.071-0.978 0.036-1.387 0.32-0.409 0.267-0.676 0.711-0.764 1.191l-4.124 23.413c-0.178 1.004 0.498 1.956 1.511 2.133l11.956 2.116z"></path>
<path fill="#fff" style="fill: var(--color2, #fff)" d="M19.858 26.827l-11.858-2.089 3.582-20.293 11.849 2.089z"></path>
<path fill="#e84133" style="fill: var(--color1, #e84133)" d="M19.378 26.933s-0.027 0-0.036-0.018l-11.858-2.089c-0.071 0-0.133-0.053-0.178-0.107s-0.053-0.124-0.044-0.196l3.582-20.302c0-0.071 0.053-0.133 0.107-0.178 0.062-0.036 0.133-0.053 0.204-0.044l11.867 2.098c0.133 0.027 0.231 0.16 0.204 0.311l-3.582 20.302c-0.018 0.124-0.133 0.222-0.267 0.222zM7.849 24.356l11.324 1.982 3.476-19.76-11.324-1.982-3.484 19.76z"></path>
<path fill="#e84133" style="fill: var(--color1, #e84133)" d="M19.556 3.947h-0.044l-4.329-0.773c-0.151-0.018-0.249-0.16-0.222-0.311 0.027-0.142 0.16-0.249 0.32-0.222l4.311 0.764c0.151 0.027 0.249 0.178 0.222 0.311s-0.142 0.231-0.267 0.231z"></path>
<path fill="#e84133" style="fill: var(--color1, #e84133)" d="M13.929 2.951h-0.044l-0.373-0.071c-0.151-0.027-0.249-0.178-0.222-0.311 0.027-0.16 0.16-0.267 0.311-0.231l0.373 0.071c0.151 0.018 0.249 0.16 0.222 0.311-0.018 0.133-0.133 0.222-0.267 0.222z"></path>
<path fill="#fff" style="fill: var(--color2, #fff)" d="M13.982 27.689c0.089-0.48-0.231-0.933-0.711-1.013-0.48-0.089-0.933 0.24-1.022 0.711-0.089 0.48 0.24 0.942 0.711 1.022 0.48 0.089 0.942-0.231 1.022-0.711z"></path>
<path fill="#e84133" style="fill: var(--color1, #e84133)" d="M13.12 28.684c-0.071 0-0.133 0-0.204-0.018-0.622-0.107-1.040-0.711-0.933-1.333 0.116-0.622 0.711-1.031 1.333-0.924 0.622 0.116 1.040 0.711 0.933 1.333-0.089 0.56-0.587 0.951-1.129 0.951zM13.12 26.924c-0.293 0-0.551 0.204-0.604 0.498-0.053 0.329 0.178 0.649 0.498 0.711 0.329 0.053 0.64-0.178 0.711-0.498 0.053-0.329-0.178-0.649-0.498-0.711h-0.107z"></path>
<path fill="#e84133" style="fill: var(--color1, #e84133)" d="M9.422 6.444h-0.044l-0.836-0.16c-0.133-0.027-0.24-0.16-0.213-0.311s0.178-0.249 0.32-0.222l0.836 0.151c0.151 0.027 0.249 0.178 0.222 0.311-0.018 0.124-0.133 0.222-0.267 0.222z"></path>
<path fill="#e84133" style="fill: var(--color1, #e84133)" d="M9.307 7.111h-0.044l-0.836-0.151c-0.151-0.027-0.249-0.178-0.222-0.32s0.178-0.24 0.311-0.213l0.844 0.142c0.142 0.018 0.24 0.16 0.213 0.311-0.018 0.133-0.133 0.222-0.267 0.222z"></path>
<path fill="#e84133" style="fill: var(--color1, #e84133)" d="M9.191 7.778h-0.044l-0.844-0.151c-0.151-0.027-0.249-0.16-0.222-0.311s0.16-0.249 0.311-0.222l0.836 0.151c0.142 0.027 0.24 0.178 0.213 0.311-0.018 0.133-0.133 0.222-0.267 0.222z"></path>
<path fill="#e84133" style="fill: var(--color1, #e84133)" d="M16.924 11.964c0.044 0.178 0.053 0.329 0.027 0.498-0.027 0.178-0.089 0.329-0.178 0.462-0.107 0.142-0.222 0.249-0.373 0.338-0.062 0.036-0.133 0.071-0.213 0.089-0.062 0.036-0.133 0.053-0.213 0.062l-0.044 0.267c0 0.089-0.053 0.16-0.133 0.213-0.071 0.053-0.16 0.071-0.249 0.062-0.089 0-0.178-0.053-0.222-0.133-0.053-0.089-0.071-0.16-0.053-0.267l0.044-0.267c-0.267-0.133-0.444-0.338-0.533-0.622-0.044-0.089-0.036-0.178 0-0.267 0.044-0.071 0.107-0.133 0.196-0.178 0.089-0.027 0.178-0.018 0.267 0.027 0.071 0.036 0.133 0.089 0.16 0.178 0.053 0.151 0.151 0.24 0.284 0.284 0.133 0.053 0.267 0.036 0.391-0.036 0.124-0.062 0.204-0.178 0.231-0.329 0-0.071 0-0.133-0.018-0.204-0.018-0.062-0.044-0.124-0.089-0.178l-0.747-0.871c-0.116-0.133-0.196-0.267-0.24-0.444-0.044-0.142-0.053-0.311-0.027-0.471s0.089-0.311 0.178-0.444c0.089-0.142 0.213-0.249 0.356-0.338 0.062-0.044 0.133-0.089 0.204-0.107l0.213-0.044 0.044-0.267c0-0.089 0.062-0.178 0.133-0.231 0.089-0.044 0.16-0.071 0.267-0.053 0.089 0.027 0.151 0.071 0.204 0.151 0.053 0.071 0.071 0.16 0.062 0.249l-0.053 0.284c0.116 0.053 0.222 0.142 0.311 0.249 0.089 0.089 0.16 0.222 0.204 0.356 0.036 0.089 0.036 0.178 0 0.249-0.044 0.089-0.107 0.142-0.196 0.178s-0.178 0.036-0.267 0c-0.071-0.044-0.133-0.116-0.178-0.196-0.036-0.124-0.124-0.213-0.267-0.267-0.116-0.036-0.249-0.027-0.356 0.044-0.133 0.071-0.196 0.178-0.213 0.311-0.018 0.124 0 0.249 0.089 0.356l0.756 0.862c0.116 0.133 0.196 0.267 0.24 0.444z"></path>
<path fill="#fff" style="fill: var(--color2, #fff)" d="M12.444 19.733c-0.089 0.391-0.462 0.658-0.862 0.587s-0.667-0.444-0.596-0.844c0.071-0.391 0.444-0.658 0.853-0.596 0.4 0.071 0.667 0.444 0.596 0.853z"></path>
<path fill="#e84133" style="fill: var(--color1, #e84133)" d="M11.707 20.604c-0.053 0-0.116 0-0.178-0.018-0.267-0.044-0.489-0.178-0.649-0.409-0.151-0.222-0.204-0.489-0.16-0.756s0.196-0.498 0.409-0.649c0.222-0.151 0.489-0.213 0.756-0.178 0.267 0.062 0.489 0.204 0.649 0.427 0.151 0.222 0.213 0.489 0.178 0.747-0.062 0.267-0.204 0.498-0.427 0.658-0.178 0.116-0.373 0.178-0.578 0.178zM11.707 19.138c-0.089 0-0.178 0.027-0.267 0.089s-0.178 0.178-0.178 0.293c-0.036 0.124 0 0.24 0.062 0.356 0.071 0.089 0.178 0.16 0.302 0.178 0.267 0.044 0.498-0.124 0.533-0.373 0.027-0.124 0-0.249-0.071-0.356-0.071-0.089-0.178-0.16-0.302-0.178h-0.089z"></path>
<path fill="#e84133" style="fill: var(--color1, #e84133)" d="M11.787 22.311c-0.578 0-1.262-0.178-1.6-0.48-0.267-0.231-0.267-0.462-0.267-0.587 0.151-0.8 0.907-1.333 1.707-1.191s1.333 0.907 1.191 1.689c-0.018 0.133-0.107 0.356-0.444 0.48-0.16 0.053-0.356 0.089-0.587 0.089zM11.369 20.578c-0.444 0-0.836 0.311-0.916 0.764 0.018 0.071 0.293 0.284 0.889 0.391 0.56 0.089 0.889 0 0.933-0.062 0.089-0.507-0.249-0.978-0.756-1.067-0.053-0.018-0.107-0.018-0.16-0.018z"></path>
<path fill="#e84133" style="fill: var(--color1, #e84133)" d="M16.933 20.747h-0.044l-2.773-0.489c-0.151-0.036-0.249-0.178-0.222-0.329 0.027-0.142 0.151-0.249 0.32-0.213l2.756 0.48c0.151 0.027 0.249 0.178 0.222 0.311-0.018 0.124-0.133 0.213-0.267 0.213z"></path>
<path fill="#e84133" style="fill: var(--color1, #e84133)" d="M18.009 22.018h-0.044l-4.027-0.711c-0.151-0.027-0.249-0.178-0.222-0.311 0.027-0.151 0.16-0.267 0.32-0.222l4.027 0.711c0.16 0.027 0.267 0.178 0.231 0.311-0.027 0.133-0.133 0.222-0.267 0.222z"></path>
<path fill="#e84133" style="fill: var(--color1, #e84133)" d="M17.822 23.067h-0.044l-4.036-0.711c-0.142-0.027-0.249-0.178-0.222-0.311 0.044-0.151 0.178-0.267 0.329-0.222l4.027 0.711c0.151 0.027 0.249 0.178 0.222 0.311-0.018 0.133-0.133 0.222-0.267 0.222z"></path>
</symbol>
<symbol id="icon-engagement" viewBox="0 0 32 32">
<title>engagement</title>
<path fill="#e84133" style="fill: var(--color1, #e84133)" d="M15.413 15.467c-0.124 0-0.222-0.107-0.222-0.231v-4.338c0-0.124 0.089-0.222 0.213-0.222s0.222 0.107 0.222 0.231v4.338c0 0.124-0.107 0.222-0.231 0.222z"></path>
<path fill="#e84133" style="fill: var(--color1, #e84133)" d="M7.911 24.196c-0.089 0-0.16-0.044-0.196-0.116-0.062-0.116-0.027-0.249 0.089-0.311l3.733-2.169c0.107-0.053 0.24-0.018 0.302 0.089s0.018 0.24-0.089 0.302l-3.733 2.178-0.116 0.018z"></path>
<path fill="#e84133" style="fill: var(--color1, #e84133)" d="M15.404 27.68c-4.382 0-7.947-3.573-7.947-7.973s3.556-7.982 7.938-7.982c4.373 0 7.938 3.573 7.938 7.973s-3.556 7.973-7.938 7.973zM15.396 12.16c-4.133 0-7.502 3.378-7.502 7.529s3.36 7.529 7.493 7.529 7.493-3.378 7.493-7.529c0-4.16-3.36-7.538-7.493-7.538z"></path>
<path fill="#e84133" style="fill: var(--color1, #e84133)" d="M15.404 15.556c-0.062 0-0.116-0.027-0.16-0.071l-0.8-0.8c-0.089-0.089-0.089-0.231 0-0.32s0.222-0.089 0.311 0l0.649 0.649 0.649-0.658c0.089-0.089 0.222-0.089 0.311 0s0.089 0.222 0 0.311l-0.8 0.818c-0.044 0.044-0.089 0.071-0.151 0.071z"></path>
<path fill="#e84133" style="fill: var(--color1, #e84133)" d="M11.404 23.147h-0.062c-0.116-0.036-0.178-0.16-0.151-0.267l0.231-0.889-0.889-0.249c-0.116-0.036-0.178-0.16-0.16-0.267 0.036-0.124 0.151-0.196 0.267-0.178l1.111 0.311c0.053 0.018 0.089 0.062 0.133 0.107 0.027 0.053 0.036 0.116 0.018 0.178l-0.293 1.102c-0.027 0.089-0.116 0.16-0.213 0.16z"></path>
<path fill="#e84133" style="fill: var(--color1, #e84133)" d="M22.933 24.293c-0.053 0-0.089 0-0.124-0.036l-3.644-2.116c-0.089-0.062-0.133-0.196-0.071-0.302s0.196-0.142 0.302-0.089l3.644 2.116c0.089 0.062 0.133 0.196 0.071 0.302-0.036 0.071-0.116 0.116-0.178 0.116z"></path>
<path fill="#e84133" style="fill: var(--color1, #e84133)" d="M19.396 23.147c-0.089 0-0.178-0.062-0.213-0.16l-0.293-1.111c-0.018-0.044 0-0.107 0.018-0.16 0.036-0.044 0.089-0.089 0.133-0.089l1.102-0.311c0.124-0.027 0.24 0.044 0.267 0.16 0.036 0.116-0.027 0.24-0.151 0.267l-0.889 0.249 0.231 0.889c0.036 0.116-0.036 0.24-0.151 0.267h-0.071z"></path>
<path fill="#e84133" style="fill: var(--color1, #e84133)" d="M15.404 21.396c-0.933 0-1.689-0.764-1.689-1.689 0-0.933 0.756-1.689 1.689-1.689 0.924 0 1.689 0.756 1.689 1.689 0 0.924-0.764 1.689-1.689 1.689zM15.404 18.462c-0.684 0-1.244 0.551-1.244 1.244 0 0.684 0.56 1.244 1.244 1.244 0.676 0 1.244-0.56 1.244-1.244 0-0.693-0.569-1.244-1.244-1.244z"></path>
<path fill="#fff" style="fill: var(--color2, #fff)" d="M16.827 2.889c0 0.8-0.64 1.422-1.422 1.422-0.8 0-1.422-0.622-1.422-1.422s0.622-1.422 1.422-1.422c0.782 0 1.422 0.622 1.422 1.422z"></path>
<path fill="#e84133" style="fill: var(--color1, #e84133)" d="M15.404 4.533c-0.916 0-1.653-0.738-1.653-1.644 0-0.916 0.738-1.653 1.653-1.653 0.907 0 1.644 0.729 1.644 1.644 0 0.907-0.738 1.653-1.644 1.653zM15.404 1.689c-0.667 0-1.209 0.533-1.209 1.2s0.533 1.209 1.209 1.209c0.658 0 1.2-0.533 1.2-1.2s-0.533-1.209-1.2-1.209z"></path>
<path fill="#e84133" style="fill: var(--color1, #e84133)" d="M15.404 7.822c-0.64 0-1.227-0.089-1.671-0.249-0.711-0.267-0.871-0.649-0.871-0.924 0-1.422 1.138-2.551 2.542-2.551 1.396 0 2.533 1.156 2.533 2.56 0 0.818-1.271 1.182-2.533 1.182zM15.404 4.551c-1.156 0-2.098 0.951-2.098 2.116 0 0.409 0.916 0.738 2.098 0.738 1.173 0 2.089-0.32 2.089-0.729 0-1.156-0.933-2.107-2.089-2.107z"></path>
<path fill="#fff" style="fill: var(--color2, #fff)" d="M30.089 26.578c0 0.782-0.64 1.422-1.422 1.422-0.8 0-1.422-0.64-1.422-1.422 0-0.8 0.622-1.44 1.422-1.44 0.782 0 1.422 0.64 1.422 1.422z"></path>
<path fill="#e84133" style="fill: var(--color1, #e84133)" d="M28.667 28.222c-0.907 0-1.653-0.738-1.653-1.653 0-0.924 0.738-1.662 1.644-1.662s1.644 0.738 1.644 1.653c0 0.907-0.738 1.644-1.644 1.644zM28.658 25.342c-0.667 0-1.209 0.533-1.209 1.209 0 0.658 0.533 1.2 1.2 1.2 0.658 0 1.2-0.533 1.2-1.209s-0.533-1.218-1.2-1.218z"></path>
<path fill="#e84133" style="fill: var(--color1, #e84133)" d="M28.667 31.52c-0.622 0-1.227-0.089-1.671-0.267-0.711-0.267-0.871-0.649-0.871-0.924 0-1.404 1.129-2.551 2.533-2.551 1.396 0 2.533 1.156 2.533 2.551 0 0.818-1.271 1.191-2.533 1.191zM28.658 28.231c-1.156 0-2.098 0.942-2.098 2.098 0 0.418 0.907 0.747 2.089 0.747 1.173 0 2.089-0.329 2.089-0.747 0-1.156-0.933-2.107-2.089-2.107z"></path>
<path fill="#fff" style="fill: var(--color2, #fff)" d="M4.427 26.578c0 0.782-0.64 1.422-1.422 1.422-0.8 0-1.422-0.64-1.422-1.422 0-0.8 0.622-1.44 1.422-1.44 0.782 0 1.422 0.64 1.422 1.422z"></path>
<path fill="#e84133" style="fill: var(--color1, #e84133)" d="M3.004 28.222c-0.916 0-1.653-0.738-1.653-1.653 0-0.924 0.738-1.662 1.653-1.662 0.907 0 1.644 0.738 1.644 1.653 0 0.907-0.738 1.644-1.644 1.644zM3.004 25.342c-0.667 0-1.209 0.533-1.209 1.209 0 0.658 0.533 1.2 1.209 1.2 0.658 0 1.2-0.533 1.2-1.209s-0.533-1.218-1.2-1.218z"></path>
<path fill="#e84133" style="fill: var(--color1, #e84133)" d="M3.004 31.52c-0.64 0-1.227-0.089-1.671-0.267-0.711-0.267-0.871-0.649-0.871-0.924 0-1.404 1.138-2.551 2.542-2.551 1.396 0 2.533 1.156 2.533 2.551 0 0.818-1.271 1.191-2.533 1.191zM3.004 28.231c-1.156 0-2.098 0.942-2.098 2.098 0 0.418 0.916 0.747 2.098 0.747 1.173 0 2.089-0.329 2.089-0.747 0-1.156-0.933-2.107-2.089-2.107z"></path>
</symbol>
<symbol id="icon-facebook" viewBox="0 0 32 32">
<title>facebook</title>
<path d="M19 6h5v-6h-5c-3.86 0-7 3.14-7 7v3h-4v6h4v16h6v-16h5l1-6h-6v-3c0-0.542 0.458-1 1-1z"></path>
</symbol>
<symbol id="icon-linkedin" viewBox="0 0 32 32">
<title>linkedin</title>
<path d="M12 12h5.535v2.837h0.079c0.77-1.381 2.655-2.837 5.464-2.837 5.842 0 6.922 3.637 6.922 8.367v9.633h-5.769v-8.54c0-2.037-0.042-4.657-3.001-4.657-3.005 0-3.463 2.218-3.463 4.509v8.688h-5.767v-18z"></path>
<path d="M2 12h6v18h-6v-18z"></path>
<path d="M8 7c0 1.657-1.343 3-3 3s-3-1.343-3-3c0-1.657 1.343-3 3-3s3 1.343 3 3z"></path>
</symbol>
<symbol id="icon-twitter" viewBox="0 0 32 32">
<title>twitter</title>
<path d="M32 7.075c-1.175 0.525-2.444 0.875-3.769 1.031 1.356-0.813 2.394-2.1 2.887-3.631-1.269 0.75-2.675 1.3-4.169 1.594-1.2-1.275-2.906-2.069-4.794-2.069-3.625 0-6.563 2.938-6.563 6.563 0 0.512 0.056 1.012 0.169 1.494-5.456-0.275-10.294-2.888-13.531-6.862-0.563 0.969-0.887 2.1-0.887 3.3 0 2.275 1.156 4.287 2.919 5.463-1.075-0.031-2.087-0.331-2.975-0.819 0 0.025 0 0.056 0 0.081 0 3.181 2.263 5.838 5.269 6.437-0.55 0.15-1.131 0.231-1.731 0.231-0.425 0-0.831-0.044-1.237-0.119 0.838 2.606 3.263 4.506 6.131 4.563-2.25 1.762-5.075 2.813-8.156 2.813-0.531 0-1.050-0.031-1.569-0.094 2.913 1.869 6.362 2.95 10.069 2.95 12.075 0 18.681-10.006 18.681-18.681 0-0.287-0.006-0.569-0.019-0.85 1.281-0.919 2.394-2.075 3.275-3.394z"></path>
</symbol>
<symbol id="icon-menu" viewBox="0 0 24 24">
<title>menu</title>
<path d="M3 6h18v2.016h-18v-2.016zM3 12.984v-1.969h18v1.969h-18zM3 18v-2.016h18v2.016h-18z"></path>
</symbol>
</defs>
</svg>
